0
SECTION
2
HEADER
9
$ACADVER
1
AC1009
9
$EXTMIN
10
0.000000
20
-2122.000000
30
0.000000
9
$EXTMAX
10
2861.000000
20
-60.000000
30
0.000000
0
ENDSEC
0
SECTION
2
TABLES
0
TABLE
2
LAYER
0
LAYER
2
0
62
7
70
0
6
CONTINUOUS
0
LAYER
2
Monitor
62
7
70
0
6
CONTINUOUS
0
ENDTAB
0
TABLE
2
VPORT
5
0
100
AcDbSymbolTable
70
3
0
VPORT
5
1
100
AcDbSymbolTableRecord
100
AcDbViewportTableRecord
2
*ACTIVE
70
0
10
0.0
20
0.0
11
1.0
21
1.0
12
1430.500000
22
-1091.000000
13
0.0
23
0.0
14
10.0
24
10.0
15
10.0
25
10.0
16
0.0
26
0.0
36
1.0
17
0.0
27
0.0
37
0.0
40
2474.400000
41
2.107632093933463
42
50.0
43
0.0
44
0.0
50
0.0
51
0.0
71
0
72
100
73
1
74
3
75
0
76
0
77
0
78
0
0
ENDTAB
0
ENDSEC
0
SECTION
2
BLOCKS
0
ENDSEC
0
SECTION
2
ENTITIES
0
POLYLINE
100
AcDbEntity
100
AcDb3dPolyline
8
0
5
1000
70
0
66
1
62
252
0
VERTEX
100
AcDbEntity
100
AcDbVertex
8
0
5
1001
10
33.000000
20
-1399.000000
30
0.000000
0
VERTEX
100
AcDbEntity
100
AcDbVertex
8
0
5
1002
10
99.000000
20
-1398.000000
30
0.000000
0
VERTEX
100
AcDbEntity
100
AcDbVertex
8
0
5
1003
10
1032.000000
20
-1046.000000
30
0.000000
0
VERTEX
100
AcDbEntity
100
AcDbVertex
8
0
5
1004
10
1002.000000
20
-1032.000000
30
0.000000
0
VERTEX
100
AcDbEntity
100
AcDbVertex
8
0
5
1005
10
33.000000
20
-1399.000000
30
0.000000
0
VERTEX
100
AcDbEntity
100
AcDbVertex
8
0
5
1006
10
33.000000
20
-1399.000000
30
0.000000
0
SEQEND
0
SOLID
100
AcDbEntity
100
AcDbTrace
8
0
5
1007
10
1120.000000
20
-869.000000
30
0.000000
11
1151.000000
21
-1110.000000
31
0.000000
12
1120.000000
22
-869.000000
32
0.000000
13
996.000000
23
-1051.000000
33
0.000000
62
47
0
POLYLINE
100
AcDbEntity
100
AcDb3dPolyline
8
0
5
1008
70
0
66
1
62
7
0
VERTEX
100
AcDbEntity
100
AcDbVertex
8
0
5
1009
10
1120.000000
20
-874.000000
30
0.000000
0
VERTEX
100
AcDbEntity
100
AcDbVertex
8
0
5
100A
10
1093.000000
20
-1130.000000
30
0.000000
0
VERTEX
100
AcDbEntity
100
AcDbVertex
8
0
5
100B
10
1358.000000
20
-1254.000000
30
0.000000
0
VERTEX
100
AcDbEntity
100
AcDbVertex
8
0
5
100C
10
1478.000000
20
-1040.000000
30
0.000000
0
VERTEX
100
AcDbEntity
100
AcDbVertex
8
0
5
100D
10
1120.000000
20
-874.000000
30
0.000000
0
VERTEX
100
AcDbEntity
100
AcDbVertex
8
0
5
100E
10
1120.000000
20
-874.000000
30
0.000000
0
SEQEND
0
POLYLINE
100
AcDbEntity
100
AcDb3dPolyline
8
0
5
100F
70
0
66
1
62
7
0
VERTEX
100
AcDbEntity
100
AcDbVertex
8
0
5
1010
10
1685.000000
20
-1109.000000
30
0.000000
0
VERTEX
100
AcDbEntity
100
AcDbVertex
8
0
5
1011
10
1674.000000
20
-1422.000000
30
0.000000
0
VERTEX
100
AcDbEntity
100
AcDbVertex
8
0
5
1012
10
1995.000000
20
-1557.000000
30
0.000000
0
VERTEX
100
AcDbEntity
100
AcDbVertex
8
0
5
1013
10
2101.000000
20
-1309.000000
30
0.000000
0
VERTEX
100
AcDbEntity
100
AcDbVertex
8
0
5
1014
10
1685.000000
20
-1109.000000
30
0.000000
0
VERTEX
100
AcDbEntity
100
AcDbVertex
8
0
5
1015
10
1685.000000
20
-1109.000000
30
0.000000
0
SEQEND
0
SOLID
100
AcDbEntity
100
AcDbTrace
8
0
5
1016
10
1695.000000
20
-1151.000000
30
0.000000
11
1695.000000
21
-1399.000000
31
0.000000
12
1695.000000
22
-1151.000000
32
0.000000
13
1571.000000
23
-1330.000000
33
0.000000
62
47
0
POLYLINE
100
AcDbEntity
100
AcDb3dPolyline
8
0
5
1017
70
0
66
1
62
252
0
VERTEX
100
AcDbEntity
100
AcDbVertex
8
0
5
1018
10
1688.000000
20
-744.000000
30
0.000000
0
VERTEX
100
AcDbEntity
100
AcDbVertex
8
0
5
1019
10
2690.000000
20
-1171.000000
30
0.000000
0
VERTEX
100
AcDbEntity
100
AcDbVertex
8
0
5
101A
10
2861.000000
20
-1113.000000
30
0.000000
0
VERTEX
100
AcDbEntity
100
AcDbVertex
8
0
5
101B
10
1898.000000
20
-706.000000
30
0.000000
0
VERTEX
100
AcDbEntity
100
AcDbVertex
8
0
5
101C
10
1688.000000
20
-744.000000
30
0.000000
0
VERTEX
100
AcDbEntity
100
AcDbVertex
8
0
5
101D
10
1688.000000
20
-744.000000
30
0.000000
0
SEQEND
0
POLYLINE
100
AcDbEntity
100
AcDb3dPolyline
8
0
5
101E
70
0
66
1
62
8
0
VERTEX
100
AcDbEntity
100
AcDbVertex
8
0
5
101F
10
2861.000000
20
-1113.000000
30
0.000000
0
VERTEX
100
AcDbEntity
100
AcDbVertex
8
0
5
1020
10
2690.000000
20
-1171.000000
30
0.000000
0
VERTEX
100
AcDbEntity
100
AcDbVertex
8
0
5
1021
10
2620.000000
20
-1367.000000
30
0.000000
0
VERTEX
100
AcDbEntity
100
AcDbVertex
8
0
5
1022
10
2861.000000
20
-1273.000000
30
0.000000
0
VERTEX
100
AcDbEntity
100
AcDbVertex
8
0
5
1023
10
2861.000000
20
-1113.000000
30
0.000000
0
VERTEX
100
AcDbEntity
100
AcDbVertex
8
0
5
1024
10
2861.000000
20
-1113.000000
30
0.000000
0
SEQEND
0
POLYLINE
100
AcDbEntity
100
AcDb3dPolyline
8
0
5
1025
70
0
66
1
62
253
0
VERTEX
100
AcDbEntity
100
AcDbVertex
8
0
5
1026
10
1701.000000
20
-742.000000
30
0.000000
0
VERTEX
100
AcDbEntity
100
AcDbVertex
8
0
5
1027
10
1094.000000
20
-873.000000
30
0.000000
0
VERTEX
100
AcDbEntity
100
AcDbVertex
8
0
5
1028
10
982.000000
20
-1045.000000
30
0.000000
0
VERTEX
100
AcDbEntity
100
AcDbVertex
8
0
5
1029
10
1000.000000
20
-1047.000000
30
0.000000
0
VERTEX
100
AcDbEntity
100
AcDbVertex
8
0
5
102A
10
1112.000000
20
-878.000000
30
0.000000
0
VERTEX
100
AcDbEntity
100
AcDbVertex
8
0
5
102B
10
1402.000000
20
-1021.000000
30
0.000000
0
VERTEX
100
AcDbEntity
100
AcDbVertex
8
0
5
102C
10
1288.000000
20
-1193.000000
30
0.000000
0
VERTEX
100
AcDbEntity
100
AcDbVertex
8
0
5
102D
10
1582.000000
20
-1350.000000
30
0.000000
0
VERTEX
100
AcDbEntity
100
AcDbVertex
8
0
5
102E
10
1696.000000
20
-1165.000000
30
0.000000
0
VERTEX
100
AcDbEntity
100
AcDbVertex
8
0
5
102F
10
2024.000000
20
-1336.000000
30
0.000000
0
VERTEX
100
AcDbEntity
100
AcDbVertex
8
0
5
1030
10
1940.000000
20
-1522.000000
30
0.000000
0
VERTEX
100
AcDbEntity
100
AcDbVertex
8
0
5
1031
10
1982.000000
20
-1546.000000
30
0.000000
0
VERTEX
100
AcDbEntity
100
AcDbVertex
8
0
5
1032
10
2068.000000
20
-1342.000000
30
0.000000
0
VERTEX
100
AcDbEntity
100
AcDbVertex
8
0
5
1033
10
2694.000000
20
-1171.000000
30
0.000000
0
VERTEX
100
AcDbEntity
100
AcDbVertex
8
0
5
1034
10
1701.000000
20
-742.000000
30
0.000000
0
VERTEX
100
AcDbEntity
100
AcDbVertex
8
0
5
1035
10
1701.000000
20
-742.000000
30
0.000000
0
SEQEND
0
POLYLINE
100
AcDbEntity
100
AcDb3dPolyline
8
0
5
1036
70
0
66
1
62
252
0
VERTEX
100
AcDbEntity
100
AcDbVertex
8
0
5
1037
10
2691.000000
20
-1170.000000
30
0.000000
0
VERTEX
100
AcDbEntity
100
AcDbVertex
8
0
5
1038
10
2621.000000
20
-1366.000000
30
0.000000
0
VERTEX
100
AcDbEntity
100
AcDbVertex
8
0
5
1039
10
1983.000000
20
-1545.000000
30
0.000000
0
VERTEX
100
AcDbEntity
100
AcDbVertex
8
0
5
103A
10
2049.000000
20
-1342.000000
30
0.000000
0
VERTEX
100
AcDbEntity
100
AcDbVertex
8
0
5
103B
10
2691.000000
20
-1170.000000
30
0.000000
0
VERTEX
100
AcDbEntity
100
AcDbVertex
8
0
5
103C
10
2691.000000
20
-1170.000000
30
0.000000
0
SEQEND
0
SOLID
100
AcDbEntity
100
AcDbTrace
8
0
5
103D
10
1983.000000
20
-1544.000000
30
0.000000
11
1983.000000
21
-1629.000000
31
0.000000
12
1983.000000
22
-1544.000000
32
0.000000
13
2628.000000
23
-1363.000000
33
0.000000
62
47
0
POLYLINE
100
AcDbEntity
100
AcDb3dPolyline
8
0
5
103E
70
0
66
1
62
7
0
VERTEX
100
AcDbEntity
100
AcDbVertex
8
0
5
103F
10
1343.000000
20
-1146.000000
30
0.000000
0
VERTEX
100
AcDbEntity
100
AcDbVertex
8
0
5
1040
10
1610.000000
20
-1284.000000
30
0.000000
0
SEQEND
0
POLYLINE
100
AcDbEntity
100
AcDb3dPolyline
8
0
5
1041
70
0
66
1
62
253
0
VERTEX
100
AcDbEntity
100
AcDbVertex
8
0
5
1042
10
305.000000
20
-1299.000000
30
0.000000
0
VERTEX
100
AcDbEntity
100
AcDbVertex
8
0
5
1043
10
1320.000000
20
-1914.000000
30
0.000000
0
VERTEX
100
AcDbEntity
100
AcDbVertex
8
0
5
1044
10
1929.000000
20
-1564.000000
30
0.000000
0
VERTEX
100
AcDbEntity
100
AcDbVertex
8
0
5
1045
10
1983.000000
20
-1543.000000
30
0.000000
0
VERTEX
100
AcDbEntity
100
AcDbVertex
8
0
5
1046
10
1009.000000
20
-1036.000000
30
0.000000
0
VERTEX
100
AcDbEntity
100
AcDbVertex
8
0
5
1047
10
305.000000
20
-1299.000000
30
0.000000
0
VERTEX
100
AcDbEntity
100
AcDbVertex
8
0
5
1048
10
305.000000
20
-1299.000000
30
0.000000
0
SEQEND
0
POLYLINE
100
AcDbEntity
100
AcDb3dPolyline
8
0
5
1049
70
0
66
1
62
250
0
VERTEX
100
AcDbEntity
100
AcDbVertex
8
0
5
104A
10
2838.000000
20
-1281.000000
30
0.000000
0
VERTEX
100
AcDbEntity
100
AcDbVertex
8
0
5
104B
10
1983.000000
20
-1614.000000
30
0.000000
0
VERTEX
100
AcDbEntity
100
AcDbVertex
8
0
5
104C
10
1983.000000
20
-1653.000000
30
0.000000
0
VERTEX
100
AcDbEntity
100
AcDbVertex
8
0
5
104D
10
1978.000000
20
-1677.000000
30
0.000000
0
VERTEX
100
AcDbEntity
100
AcDbVertex
8
0
5
104E
10
1973.000000
20
-1689.000000
30
0.000000
0
VERTEX
100
AcDbEntity
100
AcDbVertex
8
0
5
104F
10
1962.000000
20
-1704.000000
30
0.000000
0
VERTEX
100
AcDbEntity
100
AcDbVertex
8
0
5
1050
10
1796.000000
20
-1777.000000
30
0.000000
0
VERTEX
100
AcDbEntity
100
AcDbVertex
8
0
5
1051
10
1789.000000
20
-1800.000000
30
0.000000
0
VERTEX
100
AcDbEntity
100
AcDbVertex
8
0
5
1052
10
1320.000000
20
-2000.000000
30
0.000000
0
VERTEX
100
AcDbEntity
100
AcDbVertex
8
0
5
1053
10
1320.000000
20
-2108.000000
30
0.000000
0
VERTEX
100
AcDbEntity
100
AcDbVertex
8
0
5
1054
10
1336.000000
20
-2108.000000
30
0.000000
0
VERTEX
100
AcDbEntity
100
AcDbVertex
8
0
5
1055
10
2821.000000
20
-1463.000000
30
0.000000
0
VERTEX
100
AcDbEntity
100
AcDbVertex
8
0
5
1056
10
2828.000000
20
-1458.000000
30
0.000000
0
VERTEX
100
AcDbEntity
100
AcDbVertex
8
0
5
1057
10
2835.000000
20
-1448.000000
30
0.000000
0
VERTEX
100
AcDbEntity
100
AcDbVertex
8
0
5
1058
10
2838.000000
20
-1435.000000
30
0.000000
0
VERTEX
100
AcDbEntity
100
AcDbVertex
8
0
5
1059
10
2838.000000
20
-1281.000000
30
0.000000
0
VERTEX
100
AcDbEntity
100
AcDbVertex
8
0
5
105A
10
2838.000000
20
-1281.000000
30
0.000000
0
SEQEND
0
POLYLINE
100
AcDbEntity
100
AcDb3dPolyline
8
0
5
105B
70
0
66
1
62
252
0
VERTEX
100
AcDbEntity
100
AcDbVertex
8
0
5
105C
10
277.000000
20
-1342.000000
30
0.000000
0
VERTEX
100
AcDbEntity
100
AcDbVertex
8
0
5
105D
10
1320.000000
20
-2010.000000
30
0.000000
0
VERTEX
100
AcDbEntity
100
AcDbVertex
8
0
5
105E
10
1320.000000
20
-1910.000000
30
0.000000
0
VERTEX
100
AcDbEntity
100
AcDbVertex
8
0
5
105F
10
306.000000
20
-1298.000000
30
0.000000
0
VERTEX
100
AcDbEntity
100
AcDbVertex
8
0
5
1060
10
277.000000
20
-1342.000000
30
0.000000
0
VERTEX
100
AcDbEntity
100
AcDbVertex
8
0
5
1061
10
277.000000
20
-1342.000000
30
0.000000
0
SEQEND
0
POLYLINE
100
AcDbEntity
100
AcDb3dPolyline
8
0
5
1062
70
0
66
1
62
8
0
VERTEX
100
AcDbEntity
100
AcDbVertex
8
0
5
1063
10
1320.000000
20
-2000.000000
30
0.000000
0
VERTEX
100
AcDbEntity
100
AcDbVertex
8
0
5
1064
10
1320.000000
20
-2107.000000
30
0.000000
0
VERTEX
100
AcDbEntity
100
AcDbVertex
8
0
5
1065
10
277.000000
20
-1437.000000
30
0.000000
0
VERTEX
100
AcDbEntity
100
AcDbVertex
8
0
5
1066
10
277.000000
20
-1339.000000
30
0.000000
0
VERTEX
100
AcDbEntity
100
AcDbVertex
8
0
5
1067
10
1320.000000
20
-2000.000000
30
0.000000
0
VERTEX
100
AcDbEntity
100
AcDbVertex
8
0
5
1068
10
1320.000000
20
-2000.000000
30
0.000000
0
SEQEND
0
POLYLINE
100
AcDbEntity
100
AcDb3dPolyline
8
0
5
1069
70
0
66
1
62
8
0
VERTEX
100
AcDbEntity
100
AcDbVertex
8
0
5
106A
10
820.000000
20
-1396.000000
30
0.000000
0
VERTEX
100
AcDbEntity
100
AcDbVertex
8
0
5
106B
10
1143.000000
20
-1587.000000
30
0.000000
0
VERTEX
100
AcDbEntity
100
AcDbVertex
8
0
5
106C
10
1077.000000
20
-1621.000000
30
0.000000
0
VERTEX
100
AcDbEntity
100
AcDbVertex
8
0
5
106D
10
752.000000
20
-1427.000000
30
0.000000
0
VERTEX
100
AcDbEntity
100
AcDbVertex
8
0
5
106E
10
820.000000
20
-1396.000000
30
0.000000
0
VERTEX
100
AcDbEntity
100
AcDbVertex
8
0
5
106F
10
820.000000
20
-1396.000000
30
0.000000
0
SEQEND
0
POLYLINE
100
AcDbEntity
100
AcDb3dPolyline
8
0
5
1070
70
0
66
1
62
8
0
VERTEX
100
AcDbEntity
100
AcDbVertex
8
0
5
1071
10
1154.000000
20
-1594.000000
30
0.000000
0
VERTEX
100
AcDbEntity
100
AcDbVertex
8
0
5
1072
10
1268.000000
20
-1661.000000
30
0.000000
0
VERTEX
100
AcDbEntity
100
AcDbVertex
8
0
5
1073
10
1204.000000
20
-1698.000000
30
0.000000
0
VERTEX
100
AcDbEntity
100
AcDbVertex
8
0
5
1074
10
1086.000000
20
-1627.000000
30
0.000000
0
VERTEX
100
AcDbEntity
100
AcDbVertex
8
0
5
1075
10
1154.000000
20
-1594.000000
30
0.000000
0
VERTEX
100
AcDbEntity
100
AcDbVertex
8
0
5
1076
10
1154.000000
20
-1594.000000
30
0.000000
0
SEQEND
0
POLYLINE
100
AcDbEntity
100
AcDb3dPolyline
8
0
5
1077
70
0
66
1
62
8
0
VERTEX
100
AcDbEntity
100
AcDbVertex
8
0
5
1078
10
1275.000000
20
-1666.000000
30
0.000000
0
VERTEX
100
AcDbEntity
100
AcDbVertex
8
0
5
1079
10
1358.000000
20
-1715.000000
30
0.000000
0
VERTEX
100
AcDbEntity
100
AcDbVertex
8
0
5
107A
10
1289.000000
20
-1756.000000
30
0.000000
0
VERTEX
100
AcDbEntity
100
AcDbVertex
8
0
5
107B
10
1279.000000
20
-1748.000000
30
0.000000
0
VERTEX
100
AcDbEntity
100
AcDbVertex
8
0
5
107C
10
1230.000000
20
-1776.000000
30
0.000000
0
VERTEX
100
AcDbEntity
100
AcDbVertex
8
0
5
107D
10
1157.000000
20
-1730.000000
30
0.000000
0
VERTEX
100
AcDbEntity
100
AcDbVertex
8
0
5
107E
10
1275.000000
20
-1666.000000
30
0.000000
0
VERTEX
100
AcDbEntity
100
AcDbVertex
8
0
5
107F
10
1275.000000
20
-1666.000000
30
0.000000
0
SEQEND
0
POLYLINE
100
AcDbEntity
100
AcDb3dPolyline
8
0
5
1080
70
0
66
1
62
8
0
VERTEX
100
AcDbEntity
100
AcDbVertex
8
0
5
1081
10
1367.000000
20
-1721.000000
30
0.000000
0
VERTEX
100
AcDbEntity
100
AcDbVertex
8
0
5
1082
10
1496.000000
20
-1797.000000
30
0.000000
0
VERTEX
100
AcDbEntity
100
AcDbVertex
8
0
5
1083
10
1427.000000
20
-1832.000000
30
0.000000
0
VERTEX
100
AcDbEntity
100
AcDbVertex
8
0
5
1084
10
1304.000000
20
-1758.000000
30
0.000000
0
VERTEX
100
AcDbEntity
100
AcDbVertex
8
0
5
1085
10
1367.000000
20
-1721.000000
30
0.000000
0
VERTEX
100
AcDbEntity
100
AcDbVertex
8
0
5
1086
10
1367.000000
20
-1721.000000
30
0.000000
0
SEQEND
0
POLYLINE
100
AcDbEntity
100
AcDb3dPolyline
8
0
5
1087
70
0
66
1
62
8
0
VERTEX
100
AcDbEntity
100
AcDbVertex
8
0
5
1088
10
712.000000
20
-1332.000000
30
0.000000
0
VERTEX
100
AcDbEntity
100
AcDbVertex
8
0
5
1089
10
806.000000
20
-1389.000000
30
0.000000
0
VERTEX
100
AcDbEntity
100
AcDbVertex
8
0
5
108A
10
740.000000
20
-1420.000000
30
0.000000
0
VERTEX
100
AcDbEntity
100
AcDbVertex
8
0
5
108B
10
647.000000
20
-1363.000000
30
0.000000
0
VERTEX
100
AcDbEntity
100
AcDbVertex
8
0
5
108C
10
712.000000
20
-1332.000000
30
0.000000
0
VERTEX
100
AcDbEntity
100
AcDbVertex
8
0
5
108D
10
712.000000
20
-1332.000000
30
0.000000
0
SEQEND
0
POLYLINE
100
AcDbEntity
100
AcDb3dPolyline
8
0
5
108E
70
0
66
1
62
8
0
VERTEX
100
AcDbEntity
100
AcDbVertex
8
0
5
108F
10
593.000000
20
-1259.000000
30
0.000000
0
VERTEX
100
AcDbEntity
100
AcDbVertex
8
0
5
1090
10
663.000000
20
-1301.000000
30
0.000000
0
VERTEX
100
AcDbEntity
100
AcDbVertex
8
0
5
1091
10
593.000000
20
-1332.000000
30
0.000000
0
VERTEX
100
AcDbEntity
100
AcDbVertex
8
0
5
1092
10
521.000000
20
-1288.000000
30
0.000000
0
VERTEX
100
AcDbEntity
100
AcDbVertex
8
0
5
1093
10
593.000000
20
-1259.000000
30
0.000000
0
VERTEX
100
AcDbEntity
100
AcDbVertex
8
0
5
1094
10
593.000000
20
-1259.000000
30
0.000000
0
SEQEND
0
POLYLINE
100
AcDbEntity
100
AcDb3dPolyline
8
0
5
1095
70
0
66
1
62
8
0
VERTEX
100
AcDbEntity
100
AcDbVertex
8
0
5
1096
10
502.000000
20
-1302.000000
30
0.000000
0
VERTEX
100
AcDbEntity
100
AcDbVertex
8
0
5
1097
10
564.000000
20
-1342.000000
30
0.000000
0
VERTEX
100
AcDbEntity
100
AcDbVertex
8
0
5
1098
10
499.000000
20
-1368.000000
30
0.000000
0
VERTEX
100
AcDbEntity
100
AcDbVertex
8
0
5
1099
10
437.000000
20
-1328.000000
30
0.000000
0
VERTEX
100
AcDbEntity
100
AcDbVertex
8
0
5
109A
10
502.000000
20
-1302.000000
30
0.000000
0
VERTEX
100
AcDbEntity
100
AcDbVertex
8
0
5
109B
10
502.000000
20
-1302.000000
30
0.000000
0
SEQEND
0
POLYLINE
100
AcDbEntity
100
AcDb3dPolyline
8
0
5
109C
70
0
66
1
62
8
0
VERTEX
100
AcDbEntity
100
AcDbVertex
8
0
5
109D
10
575.000000
20
-1348.000000
30
0.000000
0
VERTEX
100
AcDbEntity
100
AcDbVertex
8
0
5
109E
10
623.000000
20
-1379.000000
30
0.000000
0
VERTEX
100
AcDbEntity
100
AcDbVertex
8
0
5
109F
10
568.000000
20
-1410.000000
30
0.000000
0
VERTEX
100
AcDbEntity
100
AcDbVertex
8
0
5
10A0
10
511.000000
20
-1375.000000
30
0.000000
0
VERTEX
100
AcDbEntity
100
AcDbVertex
8
0
5
10A1
10
575.000000
20
-1348.000000
30
0.000000
0
VERTEX
100
AcDbEntity
100
AcDbVertex
8
0
5
10A2
10
575.000000
20
-1348.000000
30
0.000000
0
SEQEND
0
POLYLINE
100
AcDbEntity
100
AcDb3dPolyline
8
0
5
10A3
70
0
66
1
62
8
0
VERTEX
100
AcDbEntity
100
AcDbVertex
8
0
5
10A4
10
453.000000
20
-1273.000000
30
0.000000
0
VERTEX
100
AcDbEntity
100
AcDbVertex
8
0
5
10A5
10
490.000000
20
-1296.000000
30
0.000000
0
VERTEX
100
AcDbEntity
100
AcDbVertex
8
0
5
10A6
10
426.000000
20
-1322.000000
30
0.000000
0
VERTEX
100
AcDbEntity
100
AcDbVertex
8
0
5
10A7
10
389.000000
20
-1298.000000
30
0.000000
0
VERTEX
100
AcDbEntity
100
AcDbVertex
8
0
5
10A8
10
453.000000
20
-1273.000000
30
0.000000
0
VERTEX
100
AcDbEntity
100
AcDbVertex
8
0
5
10A9
10
453.000000
20
-1273.000000
30
0.000000
0
SEQEND
0
POLYLINE
100
AcDbEntity
100
AcDb3dPolyline
8
0
5
10AA
70
0
66
1
62
8
0
VERTEX
100
AcDbEntity
100
AcDbVertex
8
0
5
10AB
10
1450.000000
20
-1672.000000
30
0.000000
0
VERTEX
100
AcDbEntity
100
AcDbVertex
8
0
5
10AC
10
1578.000000
20
-1748.000000
30
0.000000
0
VERTEX
100
AcDbEntity
100
AcDbVertex
8
0
5
10AD
10
1509.000000
20
-1784.000000
30
0.000000
0
VERTEX
100
AcDbEntity
100
AcDbVertex
8
0
5
10AE
10
1386.000000
20
-1709.000000
30
0.000000
0
VERTEX
100
AcDbEntity
100
AcDbVertex
8
0
5
10AF
10
1450.000000
20
-1672.000000
30
0.000000
0
VERTEX
100
AcDbEntity
100
AcDbVertex
8
0
5
10B0
10
1450.000000
20
-1672.000000
30
0.000000
0
SEQEND
0
POLYLINE
100
AcDbEntity
100
AcDb3dPolyline
8
0
5
10B1
70
0
66
1
62
8
0
VERTEX
100
AcDbEntity
100
AcDbVertex
8
0
5
10B2
10
1536.000000
20
-1627.000000
30
0.000000
0
VERTEX
100
AcDbEntity
100
AcDbVertex
8
0
5
10B3
10
1663.000000
20
-1700.000000
30
0.000000
0
VERTEX
100
AcDbEntity
100
AcDbVertex
8
0
5
10B4
10
1597.000000
20
-1733.000000
30
0.000000
0
VERTEX
100
AcDbEntity
100
AcDbVertex
8
0
5
10B5
10
1474.000000
20
-1661.000000
30
0.000000
0
VERTEX
100
AcDbEntity
100
AcDbVertex
8
0
5
10B6
10
1536.000000
20
-1627.000000
30
0.000000
0
VERTEX
100
AcDbEntity
100
AcDbVertex
8
0
5
10B7
10
1536.000000
20
-1627.000000
30
0.000000
0
SEQEND
0
POLYLINE
100
AcDbEntity
100
AcDb3dPolyline
8
0
5
10B8
70
0
66
1
62
8
0
VERTEX
100
AcDbEntity
100
AcDbVertex
8
0
5
10B9
10
1619.000000
20
-1578.000000
30
0.000000
0
VERTEX
100
AcDbEntity
100
AcDbVertex
8
0
5
10BA
10
1748.000000
20
-1650.000000
30
0.000000
0
VERTEX
100
AcDbEntity
100
AcDbVertex
8
0
5
10BB
10
1680.000000
20
-1683.000000
30
0.000000
0
VERTEX
100
AcDbEntity
100
AcDbVertex
8
0
5
10BC
10
1560.000000
20
-1614.000000
30
0.000000
0
VERTEX
100
AcDbEntity
100
AcDbVertex
8
0
5
10BD
10
1619.000000
20
-1578.000000
30
0.000000
0
VERTEX
100
AcDbEntity
100
AcDbVertex
8
0
5
10BE
10
1619.000000
20
-1578.000000
30
0.000000
0
SEQEND
0
POLYLINE
100
AcDbEntity
100
AcDb3dPolyline
8
0
5
10BF
70
0
66
1
62
8
0
VERTEX
100
AcDbEntity
100
AcDbVertex
8
0
5
10C0
10
1381.000000
20
-1631.000000
30
0.000000
0
VERTEX
100
AcDbEntity
100
AcDbVertex
8
0
5
10C1
10
1440.000000
20
-1667.000000
30
0.000000
0
VERTEX
100
AcDbEntity
100
AcDbVertex
8
0
5
10C2
10
1375.000000
20
-1704.000000
30
0.000000
0
VERTEX
100
AcDbEntity
100
AcDbVertex
8
0
5
10C3
10
1312.000000
20
-1667.000000
30
0.000000
0
VERTEX
100
AcDbEntity
100
AcDbVertex
8
0
5
10C4
10
1381.000000
20
-1631.000000
30
0.000000
0
VERTEX
100
AcDbEntity
100
AcDbVertex
8
0
5
10C5
10
1381.000000
20
-1631.000000
30
0.000000
0
SEQEND
0
POLYLINE
100
AcDbEntity
100
AcDb3dPolyline
8
0
5
10C6
70
0
66
1
62
8
0
VERTEX
100
AcDbEntity
100
AcDbVertex
8
0
5
10C7
10
1466.000000
20
-1586.000000
30
0.000000
0
VERTEX
100
AcDbEntity
100
AcDbVertex
8
0
5
10C8
10
1525.000000
20
-1621.000000
30
0.000000
0
VERTEX
100
AcDbEntity
100
AcDbVertex
8
0
5
10C9
10
1460.000000
20
-1656.000000
30
0.000000
0
VERTEX
100
AcDbEntity
100
AcDbVertex
8
0
5
10CA
10
1403.000000
20
-1621.000000
30
0.000000
0
VERTEX
100
AcDbEntity
100
AcDbVertex
8
0
5
10CB
10
1466.000000
20
-1586.000000
30
0.000000
0
VERTEX
100
AcDbEntity
100
AcDbVertex
8
0
5
10CC
10
1466.000000
20
-1586.000000
30
0.000000
0
SEQEND
0
POLYLINE
100
AcDbEntity
100
AcDb3dPolyline
8
0
5
10CD
70
0
66
1
62
8
0
VERTEX
100
AcDbEntity
100
AcDbVertex
8
0
5
10CE
10
1551.000000
20
-1539.000000
30
0.000000
0
VERTEX
100
AcDbEntity
100
AcDbVertex
8
0
5
10CF
10
1609.000000
20
-1571.000000
30
0.000000
0
VERTEX
100
AcDbEntity
100
AcDbVertex
8
0
5
10D0
10
1546.000000
20
-1607.000000
30
0.000000
0
VERTEX
100
AcDbEntity
100
AcDbVertex
8
0
5
10D1
10
1487.000000
20
-1574.000000
30
0.000000
0
VERTEX
100
AcDbEntity
100
AcDbVertex
8
0
5
10D2
10
1551.000000
20
-1539.000000
30
0.000000
0
VERTEX
100
AcDbEntity
100
AcDbVertex
8
0
5
10D3
10
1551.000000
20
-1539.000000
30
0.000000
0
SEQEND
0
POLYLINE
100
AcDbEntity
100
AcDb3dPolyline
8
0
5
10D4
70
0
66
1
62
8
0
VERTEX
100
AcDbEntity
100
AcDbVertex
8
0
5
10D5
10
1638.000000
20
-1493.000000
30
0.000000
0
VERTEX
100
AcDbEntity
100
AcDbVertex
8
0
5
10D6
10
1693.000000
20
-1523.000000
30
0.000000
0
VERTEX
100
AcDbEntity
100
AcDbVertex
8
0
5
10D7
10
1630.000000
20
-1559.000000
30
0.000000
0
VERTEX
100
AcDbEntity
100
AcDbVertex
8
0
5
10D8
10
1574.000000
20
-1528.000000
30
0.000000
0
VERTEX
100
AcDbEntity
100
AcDbVertex
8
0
5
10D9
10
1638.000000
20
-1493.000000
30
0.000000
0
VERTEX
100
AcDbEntity
100
AcDbVertex
8
0
5
10DA
10
1638.000000
20
-1493.000000
30
0.000000
0
SEQEND
0
POLYLINE
100
AcDbEntity
100
AcDb3dPolyline
8
0
5
10DB
70
0
66
1
62
8
0
VERTEX
100
AcDbEntity
100
AcDbVertex
8
0
5
10DC
10
1700.000000
20
-1459.000000
30
0.000000
0
VERTEX
100
AcDbEntity
100
AcDbVertex
8
0
5
10DD
10
1755.000000
20
-1489.000000
30
0.000000
0
VERTEX
100
AcDbEntity
100
AcDbVertex
8
0
5
10DE
10
1707.000000
20
-1516.000000
30
0.000000
0
VERTEX
100
AcDbEntity
100
AcDbVertex
8
0
5
10DF
10
1653.000000
20
-1485.000000
30
0.000000
0
VERTEX
100
AcDbEntity
100
AcDbVertex
8
0
5
10E0
10
1700.000000
20
-1459.000000
30
0.000000
0
VERTEX
100
AcDbEntity
100
AcDbVertex
8
0
5
10E1
10
1700.000000
20
-1459.000000
30
0.000000
0
SEQEND
0
POLYLINE
100
AcDbEntity
100
AcDb3dPolyline
8
0
5
10E2
70
0
66
1
62
8
0
VERTEX
100
AcDbEntity
100
AcDbVertex
8
0
5
10E3
10
1769.000000
20
-1494.000000
30
0.000000
0
VERTEX
100
AcDbEntity
100
AcDbVertex
8
0
5
10E4
10
1825.000000
20
-1524.000000
30
0.000000
0
VERTEX
100
AcDbEntity
100
AcDbVertex
8
0
5
10E5
10
1776.000000
20
-1554.000000
30
0.000000
0
VERTEX
100
AcDbEntity
100
AcDbVertex
8
0
5
10E6
10
1720.000000
20
-1523.000000
30
0.000000
0
VERTEX
100
AcDbEntity
100
AcDbVertex
8
0
5
10E7
10
1769.000000
20
-1494.000000
30
0.000000
0
VERTEX
100
AcDbEntity
100
AcDbVertex
8
0
5
10E8
10
1769.000000
20
-1494.000000
30
0.000000
0
SEQEND
0
POLYLINE
100
AcDbEntity
100
AcDb3dPolyline
8
0
5
10E9
70
0
66
1
62
8
0
VERTEX
100
AcDbEntity
100
AcDbVertex
8
0
5
10EA
10
1706.000000
20
-1530.000000
30
0.000000
0
VERTEX
100
AcDbEntity
100
AcDbVertex
8
0
5
10EB
10
1763.000000
20
-1561.000000
30
0.000000
0
VERTEX
100
AcDbEntity
100
AcDbVertex
8
0
5
10EC
10
1699.000000
20
-1597.000000
30
0.000000
0
VERTEX
100
AcDbEntity
100
AcDbVertex
8
0
5
10ED
10
1642.000000
20
-1566.000000
30
0.000000
0
VERTEX
100
AcDbEntity
100
AcDbVertex
8
0
5
10EE
10
1706.000000
20
-1530.000000
30
0.000000
0
VERTEX
100
AcDbEntity
100
AcDbVertex
8
0
5
10EF
10
1706.000000
20
-1530.000000
30
0.000000
0
SEQEND
0
POLYLINE
100
AcDbEntity
100
AcDb3dPolyline
8
0
5
10F0
70
0
66
1
62
8
0
VERTEX
100
AcDbEntity
100
AcDbVertex
8
0
5
10F1
10
1839.000000
20
-1531.000000
30
0.000000
0
VERTEX
100
AcDbEntity
100
AcDbVertex
8
0
5
10F2
10
1896.000000
20
-1562.000000
30
0.000000
0
VERTEX
100
AcDbEntity
100
AcDbVertex
8
0
5
10F3
10
1844.000000
20
-1592.000000
30
0.000000
0
VERTEX
100
AcDbEntity
100
AcDbVertex
8
0
5
10F4
10
1789.000000
20
-1561.000000
30
0.000000
0
VERTEX
100
AcDbEntity
100
AcDbVertex
8
0
5
10F5
10
1839.000000
20
-1531.000000
30
0.000000
0
VERTEX
100
AcDbEntity
100
AcDbVertex
8
0
5
10F6
10
1839.000000
20
-1531.000000
30
0.000000
0
SEQEND
0
POLYLINE
100
AcDbEntity
100
AcDb3dPolyline
8
0
5
10F7
70
0
66
1
62
8
0
VERTEX
100
AcDbEntity
100
AcDbVertex
8
0
5
10F8
10
1774.000000
20
-1567.000000
30
0.000000
0
VERTEX
100
AcDbEntity
100
AcDbVertex
8
0
5
10F9
10
1833.000000
20
-1599.000000
30
0.000000
0
VERTEX
100
AcDbEntity
100
AcDbVertex
8
0
5
10FA
10
1766.000000
20
-1635.000000
30
0.000000
0
VERTEX
100
AcDbEntity
100
AcDbVertex
8
0
5
10FB
10
1710.000000
20
-1604.000000
30
0.000000
0
VERTEX
100
AcDbEntity
100
AcDbVertex
8
0
5
10FC
10
1774.000000
20
-1567.000000
30
0.000000
0
VERTEX
100
AcDbEntity
100
AcDbVertex
8
0
5
10FD
10
1774.000000
20
-1567.000000
30
0.000000
0
SEQEND
0
POLYLINE
100
AcDbEntity
100
AcDb3dPolyline
8
0
5
10FE
70
0
66
1
62
8
0
VERTEX
100
AcDbEntity
100
AcDbVertex
8
0
5
10FF
10
1393.000000
20
-1545.000000
30
0.000000
0
VERTEX
100
AcDbEntity
100
AcDbVertex
8
0
5
1100
10
1453.000000
20
-1579.000000
30
0.000000
0
VERTEX
100
AcDbEntity
100
AcDbVertex
8
0
5
1101
10
1390.000000
20
-1614.000000
30
0.000000
0
VERTEX
100
AcDbEntity
100
AcDbVertex
8
0
5
1102
10
1329.000000
20
-1578.000000
30
0.000000
0
VERTEX
100
AcDbEntity
100
AcDbVertex
8
0
5
1103
10
1393.000000
20
-1545.000000
30
0.000000
0
VERTEX
100
AcDbEntity
100
AcDbVertex
8
0
5
1104
10
1393.000000
20
-1545.000000
30
0.000000
0
SEQEND
0
POLYLINE
100
AcDbEntity
100
AcDb3dPolyline
8
0
5
1105
70
0
66
1
62
8
0
VERTEX
100
AcDbEntity
100
AcDbVertex
8
0
5
1106
10
1482.000000
20
-1500.000000
30
0.000000
0
VERTEX
100
AcDbEntity
100
AcDbVertex
8
0
5
1107
10
1540.000000
20
-1533.000000
30
0.000000
0
VERTEX
100
AcDbEntity
100
AcDbVertex
8
0
5
1108
10
1476.000000
20
-1568.000000
30
0.000000
0
VERTEX
100
AcDbEntity
100
AcDbVertex
8
0
5
1109
10
1416.000000
20
-1533.000000
30
0.000000
0
VERTEX
100
AcDbEntity
100
AcDbVertex
8
0
5
110A
10
1482.000000
20
-1500.000000
30
0.000000
0
VERTEX
100
AcDbEntity
100
AcDbVertex
8
0
5
110B
10
1482.000000
20
-1500.000000
30
0.000000
0
SEQEND
0
POLYLINE
100
AcDbEntity
100
AcDb3dPolyline
8
0
5
110C
70
0
66
1
62
8
0
VERTEX
100
AcDbEntity
100
AcDbVertex
8
0
5
110D
10
1569.000000
20
-1455.000000
30
0.000000
0
VERTEX
100
AcDbEntity
100
AcDbVertex
8
0
5
110E
10
1625.000000
20
-1486.000000
30
0.000000
0
VERTEX
100
AcDbEntity
100
AcDbVertex
8
0
5
110F
10
1561.000000
20
-1521.000000
30
0.000000
0
VERTEX
100
AcDbEntity
100
AcDbVertex
8
0
5
1110
10
1505.000000
20
-1490.000000
30
0.000000
0
VERTEX
100
AcDbEntity
100
AcDbVertex
8
0
5
1111
10
1569.000000
20
-1455.000000
30
0.000000
0
VERTEX
100
AcDbEntity
100
AcDbVertex
8
0
5
1112
10
1569.000000
20
-1455.000000
30
0.000000
0
SEQEND
0
POLYLINE
100
AcDbEntity
100
AcDb3dPolyline
8
0
5
1113
70
0
66
1
62
8
0
VERTEX
100
AcDbEntity
100
AcDbVertex
8
0
5
1114
10
1632.000000
20
-1423.000000
30
0.000000
0
VERTEX
100
AcDbEntity
100
AcDbVertex
8
0
5
1115
10
1687.000000
20
-1453.000000
30
0.000000
0
VERTEX
100
AcDbEntity
100
AcDbVertex
8
0
5
1116
10
1640.000000
20
-1478.000000
30
0.000000
0
VERTEX
100
AcDbEntity
100
AcDbVertex
8
0
5
1117
10
1587.000000
20
-1448.000000
30
0.000000
0
VERTEX
100
AcDbEntity
100
AcDbVertex
8
0
5
1118
10
1632.000000
20
-1423.000000
30
0.000000
0
VERTEX
100
AcDbEntity
100
AcDbVertex
8
0
5
1119
10
1632.000000
20
-1423.000000
30
0.000000
0
SEQEND
0
POLYLINE
100
AcDbEntity
100
AcDb3dPolyline
8
0
5
111A
70
0
66
1
62
8
0
VERTEX
100
AcDbEntity
100
AcDbVertex
8
0
5
111B
10
1306.000000
20
-1589.000000
30
0.000000
0
VERTEX
100
AcDbEntity
100
AcDbVertex
8
0
5
111C
10
1369.000000
20
-1625.000000
30
0.000000
0
VERTEX
100
AcDbEntity
100
AcDbVertex
8
0
5
111D
10
1304.000000
20
-1661.000000
30
0.000000
0
VERTEX
100
AcDbEntity
100
AcDbVertex
8
0
5
111E
10
1241.000000
20
-1623.000000
30
0.000000
0
VERTEX
100
AcDbEntity
100
AcDbVertex
8
0
5
111F
10
1306.000000
20
-1589.000000
30
0.000000
0
VERTEX
100
AcDbEntity
100
AcDbVertex
8
0
5
1120
10
1306.000000
20
-1589.000000
30
0.000000
0
SEQEND
0
POLYLINE
100
AcDbEntity
100
AcDb3dPolyline
8
0
5
1121
70
0
66
1
62
8
0
VERTEX
100
AcDbEntity
100
AcDbVertex
8
0
5
1122
10
1235.000000
20
-1545.000000
30
0.000000
0
VERTEX
100
AcDbEntity
100
AcDbVertex
8
0
5
1123
10
1295.000000
20
-1581.000000
30
0.000000
0
VERTEX
100
AcDbEntity
100
AcDbVertex
8
0
5
1124
10
1229.000000
20
-1617.000000
30
0.000000
0
VERTEX
100
AcDbEntity
100
AcDbVertex
8
0
5
1125
10
1166.000000
20
-1581.000000
30
0.000000
0
VERTEX
100
AcDbEntity
100
AcDbVertex
8
0
5
1126
10
1235.000000
20
-1545.000000
30
0.000000
0
VERTEX
100
AcDbEntity
100
AcDbVertex
8
0
5
1127
10
1235.000000
20
-1545.000000
30
0.000000
0
SEQEND
0
POLYLINE
100
AcDbEntity
100
AcDb3dPolyline
8
0
5
1128
70
0
66
1
62
8
0
VERTEX
100
AcDbEntity
100
AcDbVertex
8
0
5
1129
10
1325.000000
20
-1502.000000
30
0.000000
0
VERTEX
100
AcDbEntity
100
AcDbVertex
8
0
5
112A
10
1384.000000
20
-1537.000000
30
0.000000
0
VERTEX
100
AcDbEntity
100
AcDbVertex
8
0
5
112B
10
1319.000000
20
-1573.000000
30
0.000000
0
VERTEX
100
AcDbEntity
100
AcDbVertex
8
0
5
112C
10
1261.000000
20
-1537.000000
30
0.000000
0
VERTEX
100
AcDbEntity
100
AcDbVertex
8
0
5
112D
10
1325.000000
20
-1502.000000
30
0.000000
0
VERTEX
100
AcDbEntity
100
AcDbVertex
8
0
5
112E
10
1325.000000
20
-1502.000000
30
0.000000
0
SEQEND
0
POLYLINE
100
AcDbEntity
100
AcDb3dPolyline
8
0
5
112F
70
0
66
1
62
8
0
VERTEX
100
AcDbEntity
100
AcDbVertex
8
0
5
1130
10
1413.000000
20
-1462.000000
30
0.000000
0
VERTEX
100
AcDbEntity
100
AcDbVertex
8
0
5
1131
10
1471.000000
20
-1494.000000
30
0.000000
0
VERTEX
100
AcDbEntity
100
AcDbVertex
8
0
5
1132
10
1408.000000
20
-1530.000000
30
0.000000
0
VERTEX
100
AcDbEntity
100
AcDbVertex
8
0
5
1133
10
1350.000000
20
-1497.000000
30
0.000000
0
VERTEX
100
AcDbEntity
100
AcDbVertex
8
0
5
1134
10
1413.000000
20
-1462.000000
30
0.000000
0
VERTEX
100
AcDbEntity
100
AcDbVertex
8
0
5
1135
10
1413.000000
20
-1462.000000
30
0.000000
0
SEQEND
0
POLYLINE
100
AcDbEntity
100
AcDb3dPolyline
8
0
5
1136
70
0
66
1
62
8
0
VERTEX
100
AcDbEntity
100
AcDbVertex
8
0
5
1137
10
1502.000000
20
-1417.000000
30
0.000000
0
VERTEX
100
AcDbEntity
100
AcDbVertex
8
0
5
1138
10
1558.000000
20
-1447.000000
30
0.000000
0
VERTEX
100
AcDbEntity
100
AcDbVertex
8
0
5
1139
10
1494.000000
20
-1483.000000
30
0.000000
0
VERTEX
100
AcDbEntity
100
AcDbVertex
8
0
5
113A
10
1438.000000
20
-1452.000000
30
0.000000
0
VERTEX
100
AcDbEntity
100
AcDbVertex
8
0
5
113B
10
1502.000000
20
-1417.000000
30
0.000000
0
VERTEX
100
AcDbEntity
100
AcDbVertex
8
0
5
113C
10
1502.000000
20
-1417.000000
30
0.000000
0
SEQEND
0
POLYLINE
100
AcDbEntity
100
AcDb3dPolyline
8
0
5
113D
70
0
66
1
62
8
0
VERTEX
100
AcDbEntity
100
AcDbVertex
8
0
5
113E
10
1563.000000
20
-1386.000000
30
0.000000
0
VERTEX
100
AcDbEntity
100
AcDbVertex
8
0
5
113F
10
1618.000000
20
-1416.000000
30
0.000000
0
VERTEX
100
AcDbEntity
100
AcDbVertex
8
0
5
1140
10
1572.000000
20
-1442.000000
30
0.000000
0
VERTEX
100
AcDbEntity
100
AcDbVertex
8
0
5
1141
10
1517.000000
20
-1410.000000
30
0.000000
0
VERTEX
100
AcDbEntity
100
AcDbVertex
8
0
5
1142
10
1563.000000
20
-1386.000000
30
0.000000
0
VERTEX
100
AcDbEntity
100
AcDbVertex
8
0
5
1143
10
1563.000000
20
-1386.000000
30
0.000000
0
SEQEND
0
POLYLINE
100
AcDbEntity
100
AcDb3dPolyline
8
0
5
1144
70
0
66
1
62
8
0
VERTEX
100
AcDbEntity
100
AcDbVertex
8
0
5
1145
10
1256.000000
20
-1464.000000
30
0.000000
0
VERTEX
100
AcDbEntity
100
AcDbVertex
8
0
5
1146
10
1315.000000
20
-1499.000000
30
0.000000
0
VERTEX
100
AcDbEntity
100
AcDbVertex
8
0
5
1147
10
1252.000000
20
-1533.000000
30
0.000000
0
VERTEX
100
AcDbEntity
100
AcDbVertex
8
0
5
1148
10
1191.000000
20
-1498.000000
30
0.000000
0
VERTEX
100
AcDbEntity
100
AcDbVertex
8
0
5
1149
10
1256.000000
20
-1464.000000
30
0.000000
0
VERTEX
100
AcDbEntity
100
AcDbVertex
8
0
5
114A
10
1256.000000
20
-1464.000000
30
0.000000
0
SEQEND
0
POLYLINE
100
AcDbEntity
100
AcDb3dPolyline
8
0
5
114B
70
0
66
1
62
8
0
VERTEX
100
AcDbEntity
100
AcDbVertex
8
0
5
114C
10
1344.000000
20
-1421.000000
30
0.000000
0
VERTEX
100
AcDbEntity
100
AcDbVertex
8
0
5
114D
10
1403.000000
20
-1454.000000
30
0.000000
0
VERTEX
100
AcDbEntity
100
AcDbVertex
8
0
5
114E
10
1338.000000
20
-1489.000000
30
0.000000
0
VERTEX
100
AcDbEntity
100
AcDbVertex
8
0
5
114F
10
1279.000000
20
-1454.000000
30
0.000000
0
VERTEX
100
AcDbEntity
100
AcDbVertex
8
0
5
1150
10
1344.000000
20
-1421.000000
30
0.000000
0
VERTEX
100
AcDbEntity
100
AcDbVertex
8
0
5
1151
10
1344.000000
20
-1421.000000
30
0.000000
0
SEQEND
0
POLYLINE
100
AcDbEntity
100
AcDb3dPolyline
8
0
5
1152
70
0
66
1
62
8
0
VERTEX
100
AcDbEntity
100
AcDbVertex
8
0
5
1153
10
1434.000000
20
-1379.000000
30
0.000000
0
VERTEX
100
AcDbEntity
100
AcDbVertex
8
0
5
1154
10
1490.000000
20
-1410.000000
30
0.000000
0
VERTEX
100
AcDbEntity
100
AcDbVertex
8
0
5
1155
10
1426.000000
20
-1445.000000
30
0.000000
0
VERTEX
100
AcDbEntity
100
AcDbVertex
8
0
5
1156
10
1369.000000
20
-1414.000000
30
0.000000
0
VERTEX
100
AcDbEntity
100
AcDbVertex
8
0
5
1157
10
1434.000000
20
-1379.000000
30
0.000000
0
VERTEX
100
AcDbEntity
100
AcDbVertex
8
0
5
1158
10
1434.000000
20
-1379.000000
30
0.000000
0
SEQEND
0
POLYLINE
100
AcDbEntity
100
AcDb3dPolyline
8
0
5
1159
70
0
66
1
62
8
0
VERTEX
100
AcDbEntity
100
AcDbVertex
8
0
5
115A
10
1497.000000
20
-1352.000000
30
0.000000
0
VERTEX
100
AcDbEntity
100
AcDbVertex
8
0
5
115B
10
1549.000000
20
-1381.000000
30
0.000000
0
VERTEX
100
AcDbEntity
100
AcDbVertex
8
0
5
115C
10
1505.000000
20
-1404.000000
30
0.000000
0
VERTEX
100
AcDbEntity
100
AcDbVertex
8
0
5
115D
10
1451.000000
20
-1374.000000
30
0.000000
0
VERTEX
100
AcDbEntity
100
AcDbVertex
8
0
5
115E
10
1497.000000
20
-1352.000000
30
0.000000
0
VERTEX
100
AcDbEntity
100
AcDbVertex
8
0
5
115F
10
1497.000000
20
-1352.000000
30
0.000000
0
SEQEND
0
POLYLINE
100
AcDbEntity
100
AcDb3dPolyline
8
0
5
1160
70
0
66
1
62
8
0
VERTEX
100
AcDbEntity
100
AcDbVertex
8
0
5
1161
10
1165.000000
20
-1505.000000
30
0.000000
0
VERTEX
100
AcDbEntity
100
AcDbVertex
8
0
5
1162
10
1228.000000
20
-1541.000000
30
0.000000
0
VERTEX
100
AcDbEntity
100
AcDbVertex
8
0
5
1163
10
1163.000000
20
-1577.000000
30
0.000000
0
VERTEX
100
AcDbEntity
100
AcDbVertex
8
0
5
1164
10
1100.000000
20
-1539.000000
30
0.000000
0
VERTEX
100
AcDbEntity
100
AcDbVertex
8
0
5
1165
10
1165.000000
20
-1505.000000
30
0.000000
0
VERTEX
100
AcDbEntity
100
AcDbVertex
8
0
5
1166
10
1165.000000
20
-1505.000000
30
0.000000
0
SEQEND
0
POLYLINE
100
AcDbEntity
100
AcDb3dPolyline
8
0
5
1167
70
0
66
1
62
8
0
VERTEX
100
AcDbEntity
100
AcDbVertex
8
0
5
1168
10
1100.000000
20
-1467.000000
30
0.000000
0
VERTEX
100
AcDbEntity
100
AcDbVertex
8
0
5
1169
10
1155.000000
20
-1500.000000
30
0.000000
0
VERTEX
100
AcDbEntity
100
AcDbVertex
8
0
5
116A
10
1093.000000
20
-1536.000000
30
0.000000
0
VERTEX
100
AcDbEntity
100
AcDbVertex
8
0
5
116B
10
1034.000000
20
-1501.000000
30
0.000000
0
VERTEX
100
AcDbEntity
100
AcDbVertex
8
0
5
116C
10
1100.000000
20
-1467.000000
30
0.000000
0
VERTEX
100
AcDbEntity
100
AcDbVertex
8
0
5
116D
10
1100.000000
20
-1467.000000
30
0.000000
0
SEQEND
0
POLYLINE
100
AcDbEntity
100
AcDb3dPolyline
8
0
5
116E
70
0
66
1
62
8
0
VERTEX
100
AcDbEntity
100
AcDbVertex
8
0
5
116F
10
1184.000000
20
-1423.000000
30
0.000000
0
VERTEX
100
AcDbEntity
100
AcDbVertex
8
0
5
1170
10
1244.000000
20
-1458.000000
30
0.000000
0
VERTEX
100
AcDbEntity
100
AcDbVertex
8
0
5
1171
10
1179.000000
20
-1493.000000
30
0.000000
0
VERTEX
100
AcDbEntity
100
AcDbVertex
8
0
5
1172
10
1121.000000
20
-1458.000000
30
0.000000
0
VERTEX
100
AcDbEntity
100
AcDbVertex
8
0
5
1173
10
1184.000000
20
-1423.000000
30
0.000000
0
VERTEX
100
AcDbEntity
100
AcDbVertex
8
0
5
1174
10
1184.000000
20
-1423.000000
30
0.000000
0
SEQEND
0
POLYLINE
100
AcDbEntity
100
AcDb3dPolyline
8
0
5
1175
70
0
66
1
62
8
0
VERTEX
100
AcDbEntity
100
AcDbVertex
8
0
5
1176
10
1273.000000
20
-1382.000000
30
0.000000
0
VERTEX
100
AcDbEntity
100
AcDbVertex
8
0
5
1177
10
1331.000000
20
-1414.000000
30
0.000000
0
VERTEX
100
AcDbEntity
100
AcDbVertex
8
0
5
1178
10
1268.000000
20
-1450.000000
30
0.000000
0
VERTEX
100
AcDbEntity
100
AcDbVertex
8
0
5
1179
10
1210.000000
20
-1416.000000
30
0.000000
0
VERTEX
100
AcDbEntity
100
AcDbVertex
8
0
5
117A
10
1273.000000
20
-1382.000000
30
0.000000
0
VERTEX
100
AcDbEntity
100
AcDbVertex
8
0
5
117B
10
1273.000000
20
-1382.000000
30
0.000000
0
SEQEND
0
POLYLINE
100
AcDbEntity
100
AcDb3dPolyline
8
0
5
117C
70
0
66
1
62
8
0
VERTEX
100
AcDbEntity
100
AcDbVertex
8
0
5
117D
10
1362.000000
20
-1343.000000
30
0.000000
0
VERTEX
100
AcDbEntity
100
AcDbVertex
8
0
5
117E
10
1417.000000
20
-1373.000000
30
0.000000
0
VERTEX
100
AcDbEntity
100
AcDbVertex
8
0
5
117F
10
1354.000000
20
-1408.000000
30
0.000000
0
VERTEX
100
AcDbEntity
100
AcDbVertex
8
0
5
1180
10
1298.000000
20
-1377.000000
30
0.000000
0
VERTEX
100
AcDbEntity
100
AcDbVertex
8
0
5
1181
10
1362.000000
20
-1343.000000
30
0.000000
0
VERTEX
100
AcDbEntity
100
AcDbVertex
8
0
5
1182
10
1362.000000
20
-1343.000000
30
0.000000
0
SEQEND
0
POLYLINE
100
AcDbEntity
100
AcDb3dPolyline
8
0
5
1183
70
0
66
1
62
8
0
VERTEX
100
AcDbEntity
100
AcDbVertex
8
0
5
1184
10
1428.000000
20
-1315.000000
30
0.000000
0
VERTEX
100
AcDbEntity
100
AcDbVertex
8
0
5
1185
10
1482.000000
20
-1344.000000
30
0.000000
0
VERTEX
100
AcDbEntity
100
AcDbVertex
8
0
5
1186
10
1436.000000
20
-1367.000000
30
0.000000
0
VERTEX
100
AcDbEntity
100
AcDbVertex
8
0
5
1187
10
1384.000000
20
-1337.000000
30
0.000000
0
VERTEX
100
AcDbEntity
100
AcDbVertex
8
0
5
1188
10
1428.000000
20
-1315.000000
30
0.000000
0
VERTEX
100
AcDbEntity
100
AcDbVertex
8
0
5
1189
10
1428.000000
20
-1315.000000
30
0.000000
0
SEQEND
0
POLYLINE
100
AcDbEntity
100
AcDb3dPolyline
8
0
5
118A
70
0
66
1
62
8
0
VERTEX
100
AcDbEntity
100
AcDbVertex
8
0
5
118B
10
1119.000000
20
-1387.000000
30
0.000000
0
VERTEX
100
AcDbEntity
100
AcDbVertex
8
0
5
118C
10
1173.000000
20
-1419.000000
30
0.000000
0
VERTEX
100
AcDbEntity
100
AcDbVertex
8
0
5
118D
10
1110.000000
20
-1453.000000
30
0.000000
0
VERTEX
100
AcDbEntity
100
AcDbVertex
8
0
5
118E
10
1053.000000
20
-1420.000000
30
0.000000
0
VERTEX
100
AcDbEntity
100
AcDbVertex
8
0
5
118F
10
1119.000000
20
-1387.000000
30
0.000000
0
VERTEX
100
AcDbEntity
100
AcDbVertex
8
0
5
1190
10
1119.000000
20
-1387.000000
30
0.000000
0
SEQEND
0
POLYLINE
100
AcDbEntity
100
AcDb3dPolyline
8
0
5
1191
70
0
66
1
62
8
0
VERTEX
100
AcDbEntity
100
AcDbVertex
8
0
5
1192
10
1210.000000
20
-1346.000000
30
0.000000
0
VERTEX
100
AcDbEntity
100
AcDbVertex
8
0
5
1193
10
1263.000000
20
-1376.000000
30
0.000000
0
VERTEX
100
AcDbEntity
100
AcDbVertex
8
0
5
1194
10
1198.000000
20
-1410.000000
30
0.000000
0
VERTEX
100
AcDbEntity
100
AcDbVertex
8
0
5
1195
10
1144.000000
20
-1378.000000
30
0.000000
0
VERTEX
100
AcDbEntity
100
AcDbVertex
8
0
5
1196
10
1210.000000
20
-1346.000000
30
0.000000
0
VERTEX
100
AcDbEntity
100
AcDbVertex
8
0
5
1197
10
1210.000000
20
-1346.000000
30
0.000000
0
SEQEND
0
POLYLINE
100
AcDbEntity
100
AcDb3dPolyline
8
0
5
1198
70
0
66
1
62
8
0
VERTEX
100
AcDbEntity
100
AcDbVertex
8
0
5
1199
10
1297.000000
20
-1306.000000
30
0.000000
0
VERTEX
100
AcDbEntity
100
AcDbVertex
8
0
5
119A
10
1352.000000
20
-1337.000000
30
0.000000
0
VERTEX
100
AcDbEntity
100
AcDbVertex
8
0
5
119B
10
1285.000000
20
-1370.000000
30
0.000000
0
VERTEX
100
AcDbEntity
100
AcDbVertex
8
0
5
119C
10
1229.000000
20
-1339.000000
30
0.000000
0
VERTEX
100
AcDbEntity
100
AcDbVertex
8
0
5
119D
10
1297.000000
20
-1306.000000
30
0.000000
0
VERTEX
100
AcDbEntity
100
AcDbVertex
8
0
5
119E
10
1297.000000
20
-1306.000000
30
0.000000
0
SEQEND
0
POLYLINE
100
AcDbEntity
100
AcDb3dPolyline
8
0
5
119F
70
0
66
1
62
8
0
VERTEX
100
AcDbEntity
100
AcDbVertex
8
0
5
11A0
10
1358.000000
20
-1278.000000
30
0.000000
0
VERTEX
100
AcDbEntity
100
AcDbVertex
8
0
5
11A1
10
1413.000000
20
-1308.000000
30
0.000000
0
VERTEX
100
AcDbEntity
100
AcDbVertex
8
0
5
11A2
10
1370.000000
20
-1330.000000
30
0.000000
0
VERTEX
100
AcDbEntity
100
AcDbVertex
8
0
5
11A3
10
1315.000000
20
-1299.000000
30
0.000000
0
VERTEX
100
AcDbEntity
100
AcDbVertex
8
0
5
11A4
10
1358.000000
20
-1278.000000
30
0.000000
0
VERTEX
100
AcDbEntity
100
AcDbVertex
8
0
5
11A5
10
1358.000000
20
-1278.000000
30
0.000000
0
SEQEND
0
POLYLINE
100
AcDbEntity
100
AcDb3dPolyline
8
0
5
11A6
70
0
66
1
62
8
0
VERTEX
100
AcDbEntity
100
AcDbVertex
8
0
5
11A7
10
1032.000000
20
-1428.000000
30
0.000000
0
VERTEX
100
AcDbEntity
100
AcDbVertex
8
0
5
11A8
10
1088.000000
20
-1462.000000
30
0.000000
0
VERTEX
100
AcDbEntity
100
AcDbVertex
8
0
5
11A9
10
1020.000000
20
-1494.000000
30
0.000000
0
VERTEX
100
AcDbEntity
100
AcDbVertex
8
0
5
11AA
10
964.000000
20
-1461.000000
30
0.000000
0
VERTEX
100
AcDbEntity
100
AcDbVertex
8
0
5
11AB
10
1032.000000
20
-1428.000000
30
0.000000
0
VERTEX
100
AcDbEntity
100
AcDbVertex
8
0
5
11AC
10
1032.000000
20
-1428.000000
30
0.000000
0
SEQEND
0
POLYLINE
100
AcDbEntity
100
AcDb3dPolyline
8
0
5
11AD
70
0
66
1
62
8
0
VERTEX
100
AcDbEntity
100
AcDbVertex
8
0
5
11AE
10
965.000000
20
-1387.000000
30
0.000000
0
VERTEX
100
AcDbEntity
100
AcDbVertex
8
0
5
11AF
10
1018.000000
20
-1420.000000
30
0.000000
0
VERTEX
100
AcDbEntity
100
AcDbVertex
8
0
5
11B0
10
952.000000
20
-1454.000000
30
0.000000
0
VERTEX
100
AcDbEntity
100
AcDbVertex
8
0
5
11B1
10
893.000000
20
-1420.000000
30
0.000000
0
VERTEX
100
AcDbEntity
100
AcDbVertex
8
0
5
11B2
10
965.000000
20
-1387.000000
30
0.000000
0
VERTEX
100
AcDbEntity
100
AcDbVertex
8
0
5
11B3
10
965.000000
20
-1387.000000
30
0.000000
0
SEQEND
0
POLYLINE
100
AcDbEntity
100
AcDb3dPolyline
8
0
5
11B4
70
0
66
1
62
8
0
VERTEX
100
AcDbEntity
100
AcDbVertex
8
0
5
11B5
10
1050.000000
20
-1350.000000
30
0.000000
0
VERTEX
100
AcDbEntity
100
AcDbVertex
8
0
5
11B6
10
1106.000000
20
-1381.000000
30
0.000000
0
VERTEX
100
AcDbEntity
100
AcDbVertex
8
0
5
11B7
10
1040.000000
20
-1413.000000
30
0.000000
0
VERTEX
100
AcDbEntity
100
AcDbVertex
8
0
5
11B8
10
984.000000
20
-1379.000000
30
0.000000
0
VERTEX
100
AcDbEntity
100
AcDbVertex
8
0
5
11B9
10
1050.000000
20
-1350.000000
30
0.000000
0
VERTEX
100
AcDbEntity
100
AcDbVertex
8
0
5
11BA
10
1050.000000
20
-1350.000000
30
0.000000
0
SEQEND
0
POLYLINE
100
AcDbEntity
100
AcDb3dPolyline
8
0
5
11BB
70
0
66
1
62
8
0
VERTEX
100
AcDbEntity
100
AcDbVertex
8
0
5
11BC
10
1141.000000
20
-1308.000000
30
0.000000
0
VERTEX
100
AcDbEntity
100
AcDbVertex
8
0
5
11BD
10
1196.000000
20
-1340.000000
30
0.000000
0
VERTEX
100
AcDbEntity
100
AcDbVertex
8
0
5
11BE
10
1132.000000
20
-1373.000000
30
0.000000
0
VERTEX
100
AcDbEntity
100
AcDbVertex
8
0
5
11BF
10
1073.000000
20
-1339.000000
30
0.000000
0
VERTEX
100
AcDbEntity
100
AcDbVertex
8
0
5
11C0
10
1141.000000
20
-1308.000000
30
0.000000
0
VERTEX
100
AcDbEntity
100
AcDbVertex
8
0
5
11C1
10
1141.000000
20
-1308.000000
30
0.000000
0
SEQEND
0
POLYLINE
100
AcDbEntity
100
AcDb3dPolyline
8
0
5
11C2
70
0
66
1
62
8
0
VERTEX
100
AcDbEntity
100
AcDbVertex
8
0
5
11C3
10
1228.000000
20
-1269.000000
30
0.000000
0
VERTEX
100
AcDbEntity
100
AcDbVertex
8
0
5
11C4
10
1285.000000
20
-1299.000000
30
0.000000
0
VERTEX
100
AcDbEntity
100
AcDbVertex
8
0
5
11C5
10
1217.000000
20
-1332.000000
30
0.000000
0
VERTEX
100
AcDbEntity
100
AcDbVertex
8
0
5
11C6
10
1160.000000
20
-1301.000000
30
0.000000
0
VERTEX
100
AcDbEntity
100
AcDbVertex
8
0
5
11C7
10
1228.000000
20
-1269.000000
30
0.000000
0
VERTEX
100
AcDbEntity
100
AcDbVertex
8
0
5
11C8
10
1228.000000
20
-1269.000000
30
0.000000
0
SEQEND
0
POLYLINE
100
AcDbEntity
100
AcDb3dPolyline
8
0
5
11C9
70
0
66
1
62
8
0
VERTEX
100
AcDbEntity
100
AcDbVertex
8
0
5
11CA
10
1290.000000
20
-1243.000000
30
0.000000
0
VERTEX
100
AcDbEntity
100
AcDbVertex
8
0
5
11CB
10
1345.000000
20
-1273.000000
30
0.000000
0
VERTEX
100
AcDbEntity
100
AcDbVertex
8
0
5
11CC
10
1304.000000
20
-1293.000000
30
0.000000
0
VERTEX
100
AcDbEntity
100
AcDbVertex
8
0
5
11CD
10
1249.000000
20
-1262.000000
30
0.000000
0
VERTEX
100
AcDbEntity
100
AcDbVertex
8
0
5
11CE
10
1290.000000
20
-1243.000000
30
0.000000
0
VERTEX
100
AcDbEntity
100
AcDbVertex
8
0
5
11CF
10
1290.000000
20
-1243.000000
30
0.000000
0
SEQEND
0
POLYLINE
100
AcDbEntity
100
AcDb3dPolyline
8
0
5
11D0
70
0
66
1
62
8
0
VERTEX
100
AcDbEntity
100
AcDbVertex
8
0
5
11D1
10
993.000000
20
-1314.000000
30
0.000000
0
VERTEX
100
AcDbEntity
100
AcDbVertex
8
0
5
11D2
10
1039.000000
20
-1343.000000
30
0.000000
0
VERTEX
100
AcDbEntity
100
AcDbVertex
8
0
5
11D3
10
972.000000
20
-1373.000000
30
0.000000
0
VERTEX
100
AcDbEntity
100
AcDbVertex
8
0
5
11D4
10
924.000000
20
-1345.000000
30
0.000000
0
VERTEX
100
AcDbEntity
100
AcDbVertex
8
0
5
11D5
10
993.000000
20
-1314.000000
30
0.000000
0
VERTEX
100
AcDbEntity
100
AcDbVertex
8
0
5
11D6
10
993.000000
20
-1314.000000
30
0.000000
0
SEQEND
0
POLYLINE
100
AcDbEntity
100
AcDb3dPolyline
8
0
5
11D7
70
0
66
1
62
8
0
VERTEX
100
AcDbEntity
100
AcDbVertex
8
0
5
11D8
10
1079.000000
20
-1274.000000
30
0.000000
0
VERTEX
100
AcDbEntity
100
AcDbVertex
8
0
5
11D9
10
1128.000000
20
-1302.000000
30
0.000000
0
VERTEX
100
AcDbEntity
100
AcDbVertex
8
0
5
11DA
10
1061.000000
20
-1332.000000
30
0.000000
0
VERTEX
100
AcDbEntity
100
AcDbVertex
8
0
5
11DB
10
1013.000000
20
-1306.000000
30
0.000000
0
VERTEX
100
AcDbEntity
100
AcDbVertex
8
0
5
11DC
10
1079.000000
20
-1274.000000
30
0.000000
0
VERTEX
100
AcDbEntity
100
AcDbVertex
8
0
5
11DD
10
1079.000000
20
-1274.000000
30
0.000000
0
SEQEND
0
POLYLINE
100
AcDbEntity
100
AcDb3dPolyline
8
0
5
11DE
70
0
66
1
62
8
0
VERTEX
100
AcDbEntity
100
AcDbVertex
8
0
5
11DF
10
1168.000000
20
-1235.000000
30
0.000000
0
VERTEX
100
AcDbEntity
100
AcDbVertex
8
0
5
11E0
10
1217.000000
20
-1262.000000
30
0.000000
0
VERTEX
100
AcDbEntity
100
AcDbVertex
8
0
5
11E1
10
1147.000000
20
-1293.000000
30
0.000000
0
VERTEX
100
AcDbEntity
100
AcDbVertex
8
0
5
11E2
10
1097.000000
20
-1267.000000
30
0.000000
0
VERTEX
100
AcDbEntity
100
AcDbVertex
8
0
5
11E3
10
1168.000000
20
-1235.000000
30
0.000000
0
VERTEX
100
AcDbEntity
100
AcDbVertex
8
0
5
11E4
10
1168.000000
20
-1235.000000
30
0.000000
0
SEQEND
0
POLYLINE
100
AcDbEntity
100
AcDb3dPolyline
8
0
5
11E5
70
0
66
1
62
8
0
VERTEX
100
AcDbEntity
100
AcDbVertex
8
0
5
11E6
10
1224.000000
20
-1207.000000
30
0.000000
0
VERTEX
100
AcDbEntity
100
AcDbVertex
8
0
5
11E7
10
1276.000000
20
-1235.000000
30
0.000000
0
VERTEX
100
AcDbEntity
100
AcDbVertex
8
0
5
11E8
10
1234.000000
20
-1255.000000
30
0.000000
0
VERTEX
100
AcDbEntity
100
AcDbVertex
8
0
5
11E9
10
1182.000000
20
-1227.000000
30
0.000000
0
VERTEX
100
AcDbEntity
100
AcDbVertex
8
0
5
11EA
10
1224.000000
20
-1207.000000
30
0.000000
0
VERTEX
100
AcDbEntity
100
AcDbVertex
8
0
5
11EB
10
1224.000000
20
-1207.000000
30
0.000000
0
SEQEND
0
POLYLINE
100
AcDbEntity
100
AcDb3dPolyline
8
0
5
11EC
70
0
66
1
62
8
0
VERTEX
100
AcDbEntity
100
AcDbVertex
8
0
5
11ED
10
907.000000
20
-1355.000000
30
0.000000
0
VERTEX
100
AcDbEntity
100
AcDbVertex
8
0
5
11EE
10
952.000000
20
-1381.000000
30
0.000000
0
VERTEX
100
AcDbEntity
100
AcDbVertex
8
0
5
11EF
10
883.000000
20
-1413.000000
30
0.000000
0
VERTEX
100
AcDbEntity
100
AcDbVertex
8
0
5
11F0
10
836.000000
20
-1387.000000
30
0.000000
0
VERTEX
100
AcDbEntity
100
AcDbVertex
8
0
5
11F1
10
907.000000
20
-1355.000000
30
0.000000
0
VERTEX
100
AcDbEntity
100
AcDbVertex
8
0
5
11F2
10
907.000000
20
-1355.000000
30
0.000000
0
SEQEND
0
POLYLINE
100
AcDbEntity
100
AcDb3dPolyline
8
0
5
11F3
70
0
66
1
62
8
0
VERTEX
100
AcDbEntity
100
AcDbVertex
8
0
5
11F4
10
915.000000
20
-1269.000000
30
0.000000
0
VERTEX
100
AcDbEntity
100
AcDbVertex
8
0
5
11F5
10
979.000000
20
-1308.000000
30
0.000000
0
VERTEX
100
AcDbEntity
100
AcDbVertex
8
0
5
11F6
10
914.000000
20
-1339.000000
30
0.000000
0
VERTEX
100
AcDbEntity
100
AcDbVertex
8
0
5
11F7
10
845.000000
20
-1299.000000
30
0.000000
0
VERTEX
100
AcDbEntity
100
AcDbVertex
8
0
5
11F8
10
915.000000
20
-1269.000000
30
0.000000
0
VERTEX
100
AcDbEntity
100
AcDbVertex
8
0
5
11F9
10
915.000000
20
-1269.000000
30
0.000000
0
SEQEND
0
POLYLINE
100
AcDbEntity
100
AcDb3dPolyline
8
0
5
11FA
70
0
66
1
62
8
0
VERTEX
100
AcDbEntity
100
AcDbVertex
8
0
5
11FB
10
1003.000000
20
-1232.000000
30
0.000000
0
VERTEX
100
AcDbEntity
100
AcDbVertex
8
0
5
11FC
10
1067.000000
20
-1268.000000
30
0.000000
0
VERTEX
100
AcDbEntity
100
AcDbVertex
8
0
5
11FD
10
1000.000000
20
-1298.000000
30
0.000000
0
VERTEX
100
AcDbEntity
100
AcDbVertex
8
0
5
11FE
10
934.000000
20
-1261.000000
30
0.000000
0
VERTEX
100
AcDbEntity
100
AcDbVertex
8
0
5
11FF
10
1003.000000
20
-1232.000000
30
0.000000
0
VERTEX
100
AcDbEntity
100
AcDbVertex
8
0
5
1200
10
1003.000000
20
-1232.000000
30
0.000000
0
SEQEND
0
POLYLINE
100
AcDbEntity
100
AcDb3dPolyline
8
0
5
1201
70
0
66
1
62
8
0
VERTEX
100
AcDbEntity
100
AcDbVertex
8
0
5
1202
10
1094.000000
20
-1194.000000
30
0.000000
0
VERTEX
100
AcDbEntity
100
AcDbVertex
8
0
5
1203
10
1154.000000
20
-1228.000000
30
0.000000
0
VERTEX
100
AcDbEntity
100
AcDbVertex
8
0
5
1204
10
1085.000000
20
-1259.000000
30
0.000000
0
VERTEX
100
AcDbEntity
100
AcDbVertex
8
0
5
1205
10
1023.000000
20
-1224.000000
30
0.000000
0
VERTEX
100
AcDbEntity
100
AcDbVertex
8
0
5
1206
10
1094.000000
20
-1194.000000
30
0.000000
0
VERTEX
100
AcDbEntity
100
AcDbVertex
8
0
5
1207
10
1094.000000
20
-1194.000000
30
0.000000
0
SEQEND
0
POLYLINE
100
AcDbEntity
100
AcDb3dPolyline
8
0
5
1208
70
0
66
1
62
8
0
VERTEX
100
AcDbEntity
100
AcDbVertex
8
0
5
1209
10
1154.000000
20
-1170.000000
30
0.000000
0
VERTEX
100
AcDbEntity
100
AcDbVertex
8
0
5
120A
10
1210.000000
20
-1200.000000
30
0.000000
0
VERTEX
100
AcDbEntity
100
AcDbVertex
8
0
5
120B
10
1171.000000
20
-1220.000000
30
0.000000
0
VERTEX
100
AcDbEntity
100
AcDbVertex
8
0
5
120C
10
1111.000000
20
-1188.000000
30
0.000000
0
VERTEX
100
AcDbEntity
100
AcDbVertex
8
0
5
120D
10
1154.000000
20
-1170.000000
30
0.000000
0
VERTEX
100
AcDbEntity
100
AcDbVertex
8
0
5
120E
10
1154.000000
20
-1170.000000
30
0.000000
0
SEQEND
0
POLYLINE
100
AcDbEntity
100
AcDb3dPolyline
8
0
5
120F
70
0
66
1
62
8
0
VERTEX
100
AcDbEntity
100
AcDbVertex
8
0
5
1210
10
825.000000
20
-1306.000000
30
0.000000
0
VERTEX
100
AcDbEntity
100
AcDbVertex
8
0
5
1211
10
896.000000
20
-1347.000000
30
0.000000
0
VERTEX
100
AcDbEntity
100
AcDbVertex
8
0
5
1212
10
828.000000
20
-1379.000000
30
0.000000
0
VERTEX
100
AcDbEntity
100
AcDbVertex
8
0
5
1213
10
753.000000
20
-1337.000000
30
0.000000
0
VERTEX
100
AcDbEntity
100
AcDbVertex
8
0
5
1214
10
825.000000
20
-1306.000000
30
0.000000
0
VERTEX
100
AcDbEntity
100
AcDbVertex
8
0
5
1215
10
825.000000
20
-1306.000000
30
0.000000
0
SEQEND
0
POLYLINE
100
AcDbEntity
100
AcDb3dPolyline
8
0
5
1216
70
0
66
1
62
8
0
VERTEX
100
AcDbEntity
100
AcDbVertex
8
0
5
1217
10
698.000000
20
-1234.000000
30
0.000000
0
VERTEX
100
AcDbEntity
100
AcDbVertex
8
0
5
1218
10
809.000000
20
-1300.000000
30
0.000000
0
VERTEX
100
AcDbEntity
100
AcDbVertex
8
0
5
1219
10
739.000000
20
-1329.000000
30
0.000000
0
VERTEX
100
AcDbEntity
100
AcDbVertex
8
0
5
121A
10
627.000000
20
-1263.000000
30
0.000000
0
VERTEX
100
AcDbEntity
100
AcDbVertex
8
0
5
121B
10
698.000000
20
-1234.000000
30
0.000000
0
VERTEX
100
AcDbEntity
100
AcDbVertex
8
0
5
121C
10
698.000000
20
-1234.000000
30
0.000000
0
SEQEND
0
POLYLINE
100
AcDbEntity
100
AcDb3dPolyline
8
0
5
121D
70
0
66
1
62
8
0
VERTEX
100
AcDbEntity
100
AcDbVertex
8
0
5
121E
10
652.000000
20
-1189.000000
30
0.000000
0
VERTEX
100
AcDbEntity
100
AcDbVertex
8
0
5
121F
10
831.000000
20
-1292.000000
30
0.000000
0
VERTEX
100
AcDbEntity
100
AcDbVertex
8
0
5
1220
10
900.000000
20
-1262.000000
30
0.000000
0
VERTEX
100
AcDbEntity
100
AcDbVertex
8
0
5
1221
10
775.000000
20
-1188.000000
30
0.000000
0
VERTEX
100
AcDbEntity
100
AcDbVertex
8
0
5
1222
10
863.000000
20
-1152.000000
30
0.000000
0
VERTEX
100
AcDbEntity
100
AcDbVertex
8
0
5
1223
10
820.000000
20
-1128.000000
30
0.000000
0
VERTEX
100
AcDbEntity
100
AcDbVertex
8
0
5
1224
10
652.000000
20
-1189.000000
30
0.000000
0
VERTEX
100
AcDbEntity
100
AcDbVertex
8
0
5
1225
10
652.000000
20
-1189.000000
30
0.000000
0
SEQEND
0
POLYLINE
100
AcDbEntity
100
AcDb3dPolyline
8
0
5
1226
70
0
66
1
62
8
0
VERTEX
100
AcDbEntity
100
AcDbVertex
8
0
5
1227
10
805.000000
20
-1188.000000
30
0.000000
0
VERTEX
100
AcDbEntity
100
AcDbVertex
8
0
5
1228
10
921.000000
20
-1255.000000
30
0.000000
0
VERTEX
100
AcDbEntity
100
AcDbVertex
8
0
5
1229
10
992.000000
20
-1225.000000
30
0.000000
0
VERTEX
100
AcDbEntity
100
AcDbVertex
8
0
5
122A
10
875.000000
20
-1159.000000
30
0.000000
0
VERTEX
100
AcDbEntity
100
AcDbVertex
8
0
5
122B
10
805.000000
20
-1188.000000
30
0.000000
0
VERTEX
100
AcDbEntity
100
AcDbVertex
8
0
5
122C
10
805.000000
20
-1188.000000
30
0.000000
0
SEQEND
0
POLYLINE
100
AcDbEntity
100
AcDb3dPolyline
8
0
5
122D
70
0
66
1
62
8
0
VERTEX
100
AcDbEntity
100
AcDbVertex
8
0
5
122E
10
962.000000
20
-1191.000000
30
0.000000
0
VERTEX
100
AcDbEntity
100
AcDbVertex
8
0
5
122F
10
1011.000000
20
-1220.000000
30
0.000000
0
VERTEX
100
AcDbEntity
100
AcDbVertex
8
0
5
1230
10
1082.000000
20
-1188.000000
30
0.000000
0
VERTEX
100
AcDbEntity
100
AcDbVertex
8
0
5
1231
10
1031.000000
20
-1160.000000
30
0.000000
0
VERTEX
100
AcDbEntity
100
AcDbVertex
8
0
5
1232
10
962.000000
20
-1191.000000
30
0.000000
0
VERTEX
100
AcDbEntity
100
AcDbVertex
8
0
5
1233
10
962.000000
20
-1191.000000
30
0.000000
0
SEQEND
0
POLYLINE
100
AcDbEntity
100
AcDb3dPolyline
8
0
5
1234
70
0
66
1
62
8
0
VERTEX
100
AcDbEntity
100
AcDbVertex
8
0
5
1235
10
891.000000
20
-1153.000000
30
0.000000
0
VERTEX
100
AcDbEntity
100
AcDbVertex
8
0
5
1236
10
948.000000
20
-1184.000000
30
0.000000
0
VERTEX
100
AcDbEntity
100
AcDbVertex
8
0
5
1237
10
1017.000000
20
-1153.000000
30
0.000000
0
VERTEX
100
AcDbEntity
100
AcDbVertex
8
0
5
1238
10
962.000000
20
-1122.000000
30
0.000000
0
VERTEX
100
AcDbEntity
100
AcDbVertex
8
0
5
1239
10
891.000000
20
-1153.000000
30
0.000000
0
VERTEX
100
AcDbEntity
100
AcDbVertex
8
0
5
123A
10
891.000000
20
-1153.000000
30
0.000000
0
SEQEND
0
POLYLINE
100
AcDbEntity
100
AcDb3dPolyline
8
0
5
123B
70
0
66
1
62
8
0
VERTEX
100
AcDbEntity
100
AcDbVertex
8
0
5
123C
10
831.000000
20
-1120.000000
30
0.000000
0
VERTEX
100
AcDbEntity
100
AcDbVertex
8
0
5
123D
10
879.000000
20
-1146.000000
30
0.000000
0
VERTEX
100
AcDbEntity
100
AcDbVertex
8
0
5
123E
10
949.000000
20
-1116.000000
30
0.000000
0
VERTEX
100
AcDbEntity
100
AcDbVertex
8
0
5
123F
10
907.000000
20
-1092.000000
30
0.000000
0
VERTEX
100
AcDbEntity
100
AcDbVertex
8
0
5
1240
10
831.000000
20
-1120.000000
30
0.000000
0
VERTEX
100
AcDbEntity
100
AcDbVertex
8
0
5
1241
10
831.000000
20
-1120.000000
30
0.000000
0
SEQEND
0
POLYLINE
100
AcDbEntity
100
AcDb3dPolyline
8
0
5
1242
70
0
66
1
62
8
0
VERTEX
100
AcDbEntity
100
AcDbVertex
8
0
5
1243
10
927.000000
20
-1086.000000
30
0.000000
0
VERTEX
100
AcDbEntity
100
AcDbVertex
8
0
5
1244
10
969.000000
20
-1108.000000
30
0.000000
0
VERTEX
100
AcDbEntity
100
AcDbVertex
8
0
5
1245
10
1005.000000
20
-1092.000000
30
0.000000
0
VERTEX
100
AcDbEntity
100
AcDbVertex
8
0
5
1246
10
965.000000
20
-1070.000000
30
0.000000
0
VERTEX
100
AcDbEntity
100
AcDbVertex
8
0
5
1247
10
927.000000
20
-1086.000000
30
0.000000
0
VERTEX
100
AcDbEntity
100
AcDbVertex
8
0
5
1248
10
927.000000
20
-1086.000000
30
0.000000
0
SEQEND
0
POLYLINE
100
AcDbEntity
100
AcDb3dPolyline
8
0
5
1249
70
0
66
1
62
8
0
VERTEX
100
AcDbEntity
100
AcDbVertex
8
0
5
124A
10
979.000000
20
-1115.000000
30
0.000000
0
VERTEX
100
AcDbEntity
100
AcDbVertex
8
0
5
124B
10
1035.000000
20
-1145.000000
30
0.000000
0
VERTEX
100
AcDbEntity
100
AcDbVertex
8
0
5
124C
10
1072.000000
20
-1128.000000
30
0.000000
0
VERTEX
100
AcDbEntity
100
AcDbVertex
8
0
5
124D
10
1019.000000
20
-1098.000000
30
0.000000
0
VERTEX
100
AcDbEntity
100
AcDbVertex
8
0
5
124E
10
979.000000
20
-1115.000000
30
0.000000
0
VERTEX
100
AcDbEntity
100
AcDbVertex
8
0
5
124F
10
979.000000
20
-1115.000000
30
0.000000
0
SEQEND
0
POLYLINE
100
AcDbEntity
100
AcDb3dPolyline
8
0
5
1250
70
0
66
1
62
8
0
VERTEX
100
AcDbEntity
100
AcDbVertex
8
0
5
1251
10
562.000000
20
-1225.000000
30
0.000000
0
VERTEX
100
AcDbEntity
100
AcDbVertex
8
0
5
1252
10
614.000000
20
-1256.000000
30
0.000000
0
VERTEX
100
AcDbEntity
100
AcDbVertex
8
0
5
1253
10
685.000000
20
-1227.000000
30
0.000000
0
VERTEX
100
AcDbEntity
100
AcDbVertex
8
0
5
1254
10
638.000000
20
-1197.000000
30
0.000000
0
VERTEX
100
AcDbEntity
100
AcDbVertex
8
0
5
1255
10
562.000000
20
-1225.000000
30
0.000000
0
VERTEX
100
AcDbEntity
100
AcDbVertex
8
0
5
1256
10
562.000000
20
-1225.000000
30
0.000000
0
SEQEND
0
POLYLINE
100
AcDbEntity
100
AcDb3dPolyline
8
0
5
1257
70
0
66
1
62
8
0
VERTEX
100
AcDbEntity
100
AcDbVertex
8
0
5
1258
10
1047.000000
20
-1152.000000
30
0.000000
0
VERTEX
100
AcDbEntity
100
AcDbVertex
8
0
5
1259
10
1101.000000
20
-1182.000000
30
0.000000
0
VERTEX
100
AcDbEntity
100
AcDbVertex
8
0
5
125A
10
1141.000000
20
-1163.000000
30
0.000000
0
VERTEX
100
AcDbEntity
100
AcDbVertex
8
0
5
125B
10
1085.000000
20
-1134.000000
30
0.000000
0
VERTEX
100
AcDbEntity
100
AcDbVertex
8
0
5
125C
10
1047.000000
20
-1152.000000
30
0.000000
0
VERTEX
100
AcDbEntity
100
AcDbVertex
8
0
5
125D
10
1047.000000
20
-1152.000000
30
0.000000
0
SEQEND
0
POLYLINE
100
AcDbEntity
100
AcDb3dPolyline
8
0
5
125E
70
0
66
1
62
0
0
VERTEX
100
AcDbEntity
100
AcDbVertex
8
0
5
125F
10
821.000000
20
-1385.000000
30
0.000000
0
VERTEX
100
AcDbEntity
100
AcDbVertex
8
0
5
1260
10
1144.000000
20
-1577.000000
30
0.000000
0
VERTEX
100
AcDbEntity
100
AcDbVertex
8
0
5
1261
10
1078.000000
20
-1610.000000
30
0.000000
0
VERTEX
100
AcDbEntity
100
AcDbVertex
8
0
5
1262
10
753.000000
20
-1416.000000
30
0.000000
0
VERTEX
100
AcDbEntity
100
AcDbVertex
8
0
5
1263
10
821.000000
20
-1385.000000
30
0.000000
0
VERTEX
100
AcDbEntity
100
AcDbVertex
8
0
5
1264
10
821.000000
20
-1385.000000
30
0.000000
0
SEQEND
0
POLYLINE
100
AcDbEntity
100
AcDb3dPolyline
8
0
5
1265
70
0
66
1
62
0
0
VERTEX
100
AcDbEntity
100
AcDbVertex
8
0
5
1266
10
1155.000000
20
-1584.000000
30
0.000000
0
VERTEX
100
AcDbEntity
100
AcDbVertex
8
0
5
1267
10
1269.000000
20
-1651.000000
30
0.000000
0
VERTEX
100
AcDbEntity
100
AcDbVertex
8
0
5
1268
10
1205.000000
20
-1687.000000
30
0.000000
0
VERTEX
100
AcDbEntity
100
AcDbVertex
8
0
5
1269
10
1087.000000
20
-1616.000000
30
0.000000
0
VERTEX
100
AcDbEntity
100
AcDbVertex
8
0
5
126A
10
1155.000000
20
-1584.000000
30
0.000000
0
VERTEX
100
AcDbEntity
100
AcDbVertex
8
0
5
126B
10
1155.000000
20
-1584.000000
30
0.000000
0
SEQEND
0
POLYLINE
100
AcDbEntity
100
AcDb3dPolyline
8
0
5
126C
70
0
66
1
62
0
0
VERTEX
100
AcDbEntity
100
AcDbVertex
8
0
5
126D
10
1276.000000
20
-1655.000000
30
0.000000
0
VERTEX
100
AcDbEntity
100
AcDbVertex
8
0
5
126E
10
1359.000000
20
-1705.000000
30
0.000000
0
VERTEX
100
AcDbEntity
100
AcDbVertex
8
0
5
126F
10
1290.000000
20
-1746.000000
30
0.000000
0
VERTEX
100
AcDbEntity
100
AcDbVertex
8
0
5
1270
10
1280.000000
20
-1738.000000
30
0.000000
0
VERTEX
100
AcDbEntity
100
AcDbVertex
8
0
5
1271
10
1232.000000
20
-1766.000000
30
0.000000
0
VERTEX
100
AcDbEntity
100
AcDbVertex
8
0
5
1272
10
1158.000000
20
-1720.000000
30
0.000000
0
VERTEX
100
AcDbEntity
100
AcDbVertex
8
0
5
1273
10
1276.000000
20
-1655.000000
30
0.000000
0
VERTEX
100
AcDbEntity
100
AcDbVertex
8
0
5
1274
10
1276.000000
20
-1655.000000
30
0.000000
0
SEQEND
0
POLYLINE
100
AcDbEntity
100
AcDb3dPolyline
8
0
5
1275
70
0
66
1
62
0
0
VERTEX
100
AcDbEntity
100
AcDbVertex
8
0
5
1276
10
1368.000000
20
-1710.000000
30
0.000000
0
VERTEX
100
AcDbEntity
100
AcDbVertex
8
0
5
1277
10
1497.000000
20
-1786.000000
30
0.000000
0
VERTEX
100
AcDbEntity
100
AcDbVertex
8
0
5
1278
10
1428.000000
20
-1822.000000
30
0.000000
0
VERTEX
100
AcDbEntity
100
AcDbVertex
8
0
5
1279
10
1305.000000
20
-1747.000000
30
0.000000
0
VERTEX
100
AcDbEntity
100
AcDbVertex
8
0
5
127A
10
1368.000000
20
-1710.000000
30
0.000000
0
VERTEX
100
AcDbEntity
100
AcDbVertex
8
0
5
127B
10
1368.000000
20
-1710.000000
30
0.000000
0
SEQEND
0
POLYLINE
100
AcDbEntity
100
AcDb3dPolyline
8
0
5
127C
70
0
66
1
62
0
0
VERTEX
100
AcDbEntity
100
AcDbVertex
8
0
5
127D
10
713.000000
20
-1322.000000
30
0.000000
0
VERTEX
100
AcDbEntity
100
AcDbVertex
8
0
5
127E
10
807.000000
20
-1378.000000
30
0.000000
0
VERTEX
100
AcDbEntity
100
AcDbVertex
8
0
5
127F
10
741.000000
20
-1409.000000
30
0.000000
0
VERTEX
100
AcDbEntity
100
AcDbVertex
8
0
5
1280
10
649.000000
20
-1353.000000
30
0.000000
0
VERTEX
100
AcDbEntity
100
AcDbVertex
8
0
5
1281
10
713.000000
20
-1322.000000
30
0.000000
0
VERTEX
100
AcDbEntity
100
AcDbVertex
8
0
5
1282
10
713.000000
20
-1322.000000
30
0.000000
0
SEQEND
0
POLYLINE
100
AcDbEntity
100
AcDb3dPolyline
8
0
5
1283
70
0
66
1
62
0
0
VERTEX
100
AcDbEntity
100
AcDbVertex
8
0
5
1284
10
595.000000
20
-1248.000000
30
0.000000
0
VERTEX
100
AcDbEntity
100
AcDbVertex
8
0
5
1285
10
665.000000
20
-1291.000000
30
0.000000
0
VERTEX
100
AcDbEntity
100
AcDbVertex
8
0
5
1286
10
595.000000
20
-1322.000000
30
0.000000
0
VERTEX
100
AcDbEntity
100
AcDbVertex
8
0
5
1287
10
522.000000
20
-1277.000000
30
0.000000
0
VERTEX
100
AcDbEntity
100
AcDbVertex
8
0
5
1288
10
595.000000
20
-1248.000000
30
0.000000
0
VERTEX
100
AcDbEntity
100
AcDbVertex
8
0
5
1289
10
595.000000
20
-1248.000000
30
0.000000
0
SEQEND
0
POLYLINE
100
AcDbEntity
100
AcDb3dPolyline
8
0
5
128A
70
0
66
1
62
0
0
VERTEX
100
AcDbEntity
100
AcDbVertex
8
0
5
128B
10
503.000000
20
-1292.000000
30
0.000000
0
VERTEX
100
AcDbEntity
100
AcDbVertex
8
0
5
128C
10
565.000000
20
-1331.000000
30
0.000000
0
VERTEX
100
AcDbEntity
100
AcDbVertex
8
0
5
128D
10
500.000000
20
-1358.000000
30
0.000000
0
VERTEX
100
AcDbEntity
100
AcDbVertex
8
0
5
128E
10
438.000000
20
-1317.000000
30
0.000000
0
VERTEX
100
AcDbEntity
100
AcDbVertex
8
0
5
128F
10
503.000000
20
-1292.000000
30
0.000000
0
VERTEX
100
AcDbEntity
100
AcDbVertex
8
0
5
1290
10
503.000000
20
-1292.000000
30
0.000000
0
SEQEND
0
POLYLINE
100
AcDbEntity
100
AcDb3dPolyline
8
0
5
1291
70
0
66
1
62
0
0
VERTEX
100
AcDbEntity
100
AcDbVertex
8
0
5
1292
10
576.000000
20
-1338.000000
30
0.000000
0
VERTEX
100
AcDbEntity
100
AcDbVertex
8
0
5
1293
10
624.000000
20
-1369.000000
30
0.000000
0
VERTEX
100
AcDbEntity
100
AcDbVertex
8
0
5
1294
10
569.000000
20
-1400.000000
30
0.000000
0
VERTEX
100
AcDbEntity
100
AcDbVertex
8
0
5
1295
10
512.000000
20
-1365.000000
30
0.000000
0
VERTEX
100
AcDbEntity
100
AcDbVertex
8
0
5
1296
10
576.000000
20
-1338.000000
30
0.000000
0
VERTEX
100
AcDbEntity
100
AcDbVertex
8
0
5
1297
10
576.000000
20
-1338.000000
30
0.000000
0
SEQEND
0
POLYLINE
100
AcDbEntity
100
AcDb3dPolyline
8
0
5
1298
70
0
66
1
62
0
0
VERTEX
100
AcDbEntity
100
AcDbVertex
8
0
5
1299
10
455.000000
20
-1262.000000
30
0.000000
0
VERTEX
100
AcDbEntity
100
AcDbVertex
8
0
5
129A
10
491.000000
20
-1285.000000
30
0.000000
0
VERTEX
100
AcDbEntity
100
AcDbVertex
8
0
5
129B
10
427.000000
20
-1312.000000
30
0.000000
0
VERTEX
100
AcDbEntity
100
AcDbVertex
8
0
5
129C
10
390.000000
20
-1288.000000
30
0.000000
0
VERTEX
100
AcDbEntity
100
AcDbVertex
8
0
5
129D
10
455.000000
20
-1262.000000
30
0.000000
0
VERTEX
100
AcDbEntity
100
AcDbVertex
8
0
5
129E
10
455.000000
20
-1262.000000
30
0.000000
0
SEQEND
0
POLYLINE
100
AcDbEntity
100
AcDb3dPolyline
8
0
5
129F
70
0
66
1
62
0
0
VERTEX
100
AcDbEntity
100
AcDbVertex
8
0
5
12A0
10
1451.000000
20
-1662.000000
30
0.000000
0
VERTEX
100
AcDbEntity
100
AcDbVertex
8
0
5
12A1
10
1579.000000
20
-1738.000000
30
0.000000
0
VERTEX
100
AcDbEntity
100
AcDbVertex
8
0
5
12A2
10
1510.000000
20
-1774.000000
30
0.000000
0
VERTEX
100
AcDbEntity
100
AcDbVertex
8
0
5
12A3
10
1388.000000
20
-1699.000000
30
0.000000
0
VERTEX
100
AcDbEntity
100
AcDbVertex
8
0
5
12A4
10
1451.000000
20
-1662.000000
30
0.000000
0
VERTEX
100
AcDbEntity
100
AcDbVertex
8
0
5
12A5
10
1451.000000
20
-1662.000000
30
0.000000
0
SEQEND
0
POLYLINE
100
AcDbEntity
100
AcDb3dPolyline
8
0
5
12A6
70
0
66
1
62
0
0
VERTEX
100
AcDbEntity
100
AcDbVertex
8
0
5
12A7
10
1537.000000
20
-1616.000000
30
0.000000
0
VERTEX
100
AcDbEntity
100
AcDbVertex
8
0
5
12A8
10
1664.000000
20
-1690.000000
30
0.000000
0
VERTEX
100
AcDbEntity
100
AcDbVertex
8
0
5
12A9
10
1598.000000
20
-1723.000000
30
0.000000
0
VERTEX
100
AcDbEntity
100
AcDbVertex
8
0
5
12AA
10
1475.000000
20
-1651.000000
30
0.000000
0
VERTEX
100
AcDbEntity
100
AcDbVertex
8
0
5
12AB
10
1537.000000
20
-1616.000000
30
0.000000
0
VERTEX
100
AcDbEntity
100
AcDbVertex
8
0
5
12AC
10
1537.000000
20
-1616.000000
30
0.000000
0
SEQEND
0
POLYLINE
100
AcDbEntity
100
AcDb3dPolyline
8
0
5
12AD
70
0
66
1
62
0
0
VERTEX
100
AcDbEntity
100
AcDbVertex
8
0
5
12AE
10
1621.000000
20
-1568.000000
30
0.000000
0
VERTEX
100
AcDbEntity
100
AcDbVertex
8
0
5
12AF
10
1749.000000
20
-1639.000000
30
0.000000
0
VERTEX
100
AcDbEntity
100
AcDbVertex
8
0
5
12B0
10
1681.000000
20
-1672.000000
30
0.000000
0
VERTEX
100
AcDbEntity
100
AcDbVertex
8
0
5
12B1
10
1561.000000
20
-1604.000000
30
0.000000
0
VERTEX
100
AcDbEntity
100
AcDbVertex
8
0
5
12B2
10
1621.000000
20
-1568.000000
30
0.000000
0
VERTEX
100
AcDbEntity
100
AcDbVertex
8
0
5
12B3
10
1621.000000
20
-1568.000000
30
0.000000
0
SEQEND
0
POLYLINE
100
AcDbEntity
100
AcDb3dPolyline
8
0
5
12B4
70
0
66
1
62
0
0
VERTEX
100
AcDbEntity
100
AcDbVertex
8
0
5
12B5
10
1382.000000
20
-1621.000000
30
0.000000
0
VERTEX
100
AcDbEntity
100
AcDbVertex
8
0
5
12B6
10
1442.000000
20
-1656.000000
30
0.000000
0
VERTEX
100
AcDbEntity
100
AcDbVertex
8
0
5
12B7
10
1376.000000
20
-1693.000000
30
0.000000
0
VERTEX
100
AcDbEntity
100
AcDbVertex
8
0
5
12B8
10
1313.000000
20
-1656.000000
30
0.000000
0
VERTEX
100
AcDbEntity
100
AcDbVertex
8
0
5
12B9
10
1382.000000
20
-1621.000000
30
0.000000
0
VERTEX
100
AcDbEntity
100
AcDbVertex
8
0
5
12BA
10
1382.000000
20
-1621.000000
30
0.000000
0
SEQEND
0
POLYLINE
100
AcDbEntity
100
AcDb3dPolyline
8
0
5
12BB
70
0
66
1
62
0
0
VERTEX
100
AcDbEntity
100
AcDbVertex
8
0
5
12BC
10
1467.000000
20
-1576.000000
30
0.000000
0
VERTEX
100
AcDbEntity
100
AcDbVertex
8
0
5
12BD
10
1527.000000
20
-1610.000000
30
0.000000
0
VERTEX
100
AcDbEntity
100
AcDbVertex
8
0
5
12BE
10
1461.000000
20
-1646.000000
30
0.000000
0
VERTEX
100
AcDbEntity
100
AcDbVertex
8
0
5
12BF
10
1404.000000
20
-1610.000000
30
0.000000
0
VERTEX
100
AcDbEntity
100
AcDbVertex
8
0
5
12C0
10
1467.000000
20
-1576.000000
30
0.000000
0
VERTEX
100
AcDbEntity
100
AcDbVertex
8
0
5
12C1
10
1467.000000
20
-1576.000000
30
0.000000
0
SEQEND
0
POLYLINE
100
AcDbEntity
100
AcDb3dPolyline
8
0
5
12C2
70
0
66
1
62
0
0
VERTEX
100
AcDbEntity
100
AcDbVertex
8
0
5
12C3
10
1552.000000
20
-1529.000000
30
0.000000
0
VERTEX
100
AcDbEntity
100
AcDbVertex
8
0
5
12C4
10
1610.000000
20
-1561.000000
30
0.000000
0
VERTEX
100
AcDbEntity
100
AcDbVertex
8
0
5
12C5
10
1547.000000
20
-1597.000000
30
0.000000
0
VERTEX
100
AcDbEntity
100
AcDbVertex
8
0
5
12C6
10
1489.000000
20
-1563.000000
30
0.000000
0
VERTEX
100
AcDbEntity
100
AcDbVertex
8
0
5
12C7
10
1552.000000
20
-1529.000000
30
0.000000
0
VERTEX
100
AcDbEntity
100
AcDbVertex
8
0
5
12C8
10
1552.000000
20
-1529.000000
30
0.000000
0
SEQEND
0
POLYLINE
100
AcDbEntity
100
AcDb3dPolyline
8
0
5
12C9
70
0
66
1
62
0
0
VERTEX
100
AcDbEntity
100
AcDbVertex
8
0
5
12CA
10
1639.000000
20
-1483.000000
30
0.000000
0
VERTEX
100
AcDbEntity
100
AcDbVertex
8
0
5
12CB
10
1694.000000
20
-1513.000000
30
0.000000
0
VERTEX
100
AcDbEntity
100
AcDbVertex
8
0
5
12CC
10
1631.000000
20
-1548.000000
30
0.000000
0
VERTEX
100
AcDbEntity
100
AcDbVertex
8
0
5
12CD
10
1575.000000
20
-1517.000000
30
0.000000
0
VERTEX
100
AcDbEntity
100
AcDbVertex
8
0
5
12CE
10
1639.000000
20
-1483.000000
30
0.000000
0
VERTEX
100
AcDbEntity
100
AcDbVertex
8
0
5
12CF
10
1639.000000
20
-1483.000000
30
0.000000
0
SEQEND
0
POLYLINE
100
AcDbEntity
100
AcDb3dPolyline
8
0
5
12D0
70
0
66
1
62
0
0
VERTEX
100
AcDbEntity
100
AcDbVertex
8
0
5
12D1
10
1701.000000
20
-1448.000000
30
0.000000
0
VERTEX
100
AcDbEntity
100
AcDbVertex
8
0
5
12D2
10
1756.000000
20
-1478.000000
30
0.000000
0
VERTEX
100
AcDbEntity
100
AcDbVertex
8
0
5
12D3
10
1708.000000
20
-1506.000000
30
0.000000
0
VERTEX
100
AcDbEntity
100
AcDbVertex
8
0
5
12D4
10
1654.000000
20
-1475.000000
30
0.000000
0
VERTEX
100
AcDbEntity
100
AcDbVertex
8
0
5
12D5
10
1701.000000
20
-1448.000000
30
0.000000
0
VERTEX
100
AcDbEntity
100
AcDbVertex
8
0
5
12D6
10
1701.000000
20
-1448.000000
30
0.000000
0
SEQEND
0
POLYLINE
100
AcDbEntity
100
AcDb3dPolyline
8
0
5
12D7
70
0
66
1
62
0
0
VERTEX
100
AcDbEntity
100
AcDbVertex
8
0
5
12D8
10
1770.000000
20
-1484.000000
30
0.000000
0
VERTEX
100
AcDbEntity
100
AcDbVertex
8
0
5
12D9
10
1826.000000
20
-1514.000000
30
0.000000
0
VERTEX
100
AcDbEntity
100
AcDbVertex
8
0
5
12DA
10
1777.000000
20
-1544.000000
30
0.000000
0
VERTEX
100
AcDbEntity
100
AcDbVertex
8
0
5
12DB
10
1722.000000
20
-1513.000000
30
0.000000
0
VERTEX
100
AcDbEntity
100
AcDbVertex
8
0
5
12DC
10
1770.000000
20
-1484.000000
30
0.000000
0
VERTEX
100
AcDbEntity
100
AcDbVertex
8
0
5
12DD
10
1770.000000
20
-1484.000000
30
0.000000
0
SEQEND
0
POLYLINE
100
AcDbEntity
100
AcDb3dPolyline
8
0
5
12DE
70
0
66
1
62
0
0
VERTEX
100
AcDbEntity
100
AcDbVertex
8
0
5
12DF
10
1707.000000
20
-1520.000000
30
0.000000
0
VERTEX
100
AcDbEntity
100
AcDbVertex
8
0
5
12E0
10
1764.000000
20
-1551.000000
30
0.000000
0
VERTEX
100
AcDbEntity
100
AcDbVertex
8
0
5
12E1
10
1700.000000
20
-1586.000000
30
0.000000
0
VERTEX
100
AcDbEntity
100
AcDbVertex
8
0
5
12E2
10
1644.000000
20
-1555.000000
30
0.000000
0
VERTEX
100
AcDbEntity
100
AcDbVertex
8
0
5
12E3
10
1707.000000
20
-1520.000000
30
0.000000
0
VERTEX
100
AcDbEntity
100
AcDbVertex
8
0
5
12E4
10
1707.000000
20
-1520.000000
30
0.000000
0
SEQEND
0
POLYLINE
100
AcDbEntity
100
AcDb3dPolyline
8
0
5
12E5
70
0
66
1
62
0
0
VERTEX
100
AcDbEntity
100
AcDbVertex
8
0
5
12E6
10
1840.000000
20
-1521.000000
30
0.000000
0
VERTEX
100
AcDbEntity
100
AcDbVertex
8
0
5
12E7
10
1897.000000
20
-1552.000000
30
0.000000
0
VERTEX
100
AcDbEntity
100
AcDbVertex
8
0
5
12E8
10
1846.000000
20
-1582.000000
30
0.000000
0
VERTEX
100
AcDbEntity
100
AcDbVertex
8
0
5
12E9
10
1790.000000
20
-1551.000000
30
0.000000
0
VERTEX
100
AcDbEntity
100
AcDbVertex
8
0
5
12EA
10
1840.000000
20
-1521.000000
30
0.000000
0
VERTEX
100
AcDbEntity
100
AcDbVertex
8
0
5
12EB
10
1840.000000
20
-1521.000000
30
0.000000
0
SEQEND
0
POLYLINE
100
AcDbEntity
100
AcDb3dPolyline
8
0
5
12EC
70
0
66
1
62
0
0
VERTEX
100
AcDbEntity
100
AcDbVertex
8
0
5
12ED
10
1776.000000
20
-1556.000000
30
0.000000
0
VERTEX
100
AcDbEntity
100
AcDbVertex
8
0
5
12EE
10
1834.000000
20
-1589.000000
30
0.000000
0
VERTEX
100
AcDbEntity
100
AcDbVertex
8
0
5
12EF
10
1768.000000
20
-1624.000000
30
0.000000
0
VERTEX
100
AcDbEntity
100
AcDbVertex
8
0
5
12F0
10
1711.000000
20
-1593.000000
30
0.000000
0
VERTEX
100
AcDbEntity
100
AcDbVertex
8
0
5
12F1
10
1776.000000
20
-1556.000000
30
0.000000
0
VERTEX
100
AcDbEntity
100
AcDbVertex
8
0
5
12F2
10
1776.000000
20
-1556.000000
30
0.000000
0
SEQEND
0
POLYLINE
100
AcDbEntity
100
AcDb3dPolyline
8
0
5
12F3
70
0
66
1
62
0
0
VERTEX
100
AcDbEntity
100
AcDbVertex
8
0
5
12F4
10
1395.000000
20
-1535.000000
30
0.000000
0
VERTEX
100
AcDbEntity
100
AcDbVertex
8
0
5
12F5
10
1454.000000
20
-1569.000000
30
0.000000
0
VERTEX
100
AcDbEntity
100
AcDbVertex
8
0
5
12F6
10
1391.000000
20
-1604.000000
30
0.000000
0
VERTEX
100
AcDbEntity
100
AcDbVertex
8
0
5
12F7
10
1330.000000
20
-1568.000000
30
0.000000
0
VERTEX
100
AcDbEntity
100
AcDbVertex
8
0
5
12F8
10
1395.000000
20
-1535.000000
30
0.000000
0
VERTEX
100
AcDbEntity
100
AcDbVertex
8
0
5
12F9
10
1395.000000
20
-1535.000000
30
0.000000
0
SEQEND
0
POLYLINE
100
AcDbEntity
100
AcDb3dPolyline
8
0
5
12FA
70
0
66
1
62
0
0
VERTEX
100
AcDbEntity
100
AcDbVertex
8
0
5
12FB
10
1483.000000
20
-1490.000000
30
0.000000
0
VERTEX
100
AcDbEntity
100
AcDbVertex
8
0
5
12FC
10
1541.000000
20
-1523.000000
30
0.000000
0
VERTEX
100
AcDbEntity
100
AcDbVertex
8
0
5
12FD
10
1477.000000
20
-1558.000000
30
0.000000
0
VERTEX
100
AcDbEntity
100
AcDbVertex
8
0
5
12FE
10
1417.000000
20
-1523.000000
30
0.000000
0
VERTEX
100
AcDbEntity
100
AcDbVertex
8
0
5
12FF
10
1483.000000
20
-1490.000000
30
0.000000
0
VERTEX
100
AcDbEntity
100
AcDbVertex
8
0
5
1300
10
1483.000000
20
-1490.000000
30
0.000000
0
SEQEND
0
POLYLINE
100
AcDbEntity
100
AcDb3dPolyline
8
0
5
1301
70
0
66
1
62
0
0
VERTEX
100
AcDbEntity
100
AcDbVertex
8
0
5
1302
10
1570.000000
20
-1445.000000
30
0.000000
0
VERTEX
100
AcDbEntity
100
AcDbVertex
8
0
5
1303
10
1626.000000
20
-1476.000000
30
0.000000
0
VERTEX
100
AcDbEntity
100
AcDbVertex
8
0
5
1304
10
1562.000000
20
-1510.000000
30
0.000000
0
VERTEX
100
AcDbEntity
100
AcDbVertex
8
0
5
1305
10
1506.000000
20
-1479.000000
30
0.000000
0
VERTEX
100
AcDbEntity
100
AcDbVertex
8
0
5
1306
10
1570.000000
20
-1445.000000
30
0.000000
0
VERTEX
100
AcDbEntity
100
AcDbVertex
8
0
5
1307
10
1570.000000
20
-1445.000000
30
0.000000
0
SEQEND
0
POLYLINE
100
AcDbEntity
100
AcDb3dPolyline
8
0
5
1308
70
0
66
1
62
0
0
VERTEX
100
AcDbEntity
100
AcDbVertex
8
0
5
1309
10
1633.000000
20
-1413.000000
30
0.000000
0
VERTEX
100
AcDbEntity
100
AcDbVertex
8
0
5
130A
10
1688.000000
20
-1443.000000
30
0.000000
0
VERTEX
100
AcDbEntity
100
AcDbVertex
8
0
5
130B
10
1641.000000
20
-1468.000000
30
0.000000
0
VERTEX
100
AcDbEntity
100
AcDbVertex
8
0
5
130C
10
1588.000000
20
-1438.000000
30
0.000000
0
VERTEX
100
AcDbEntity
100
AcDbVertex
8
0
5
130D
10
1633.000000
20
-1413.000000
30
0.000000
0
VERTEX
100
AcDbEntity
100
AcDbVertex
8
0
5
130E
10
1633.000000
20
-1413.000000
30
0.000000
0
SEQEND
0
POLYLINE
100
AcDbEntity
100
AcDb3dPolyline
8
0
5
130F
70
0
66
1
62
0
0
VERTEX
100
AcDbEntity
100
AcDbVertex
8
0
5
1310
10
1307.000000
20
-1578.000000
30
0.000000
0
VERTEX
100
AcDbEntity
100
AcDbVertex
8
0
5
1311
10
1370.000000
20
-1615.000000
30
0.000000
0
VERTEX
100
AcDbEntity
100
AcDbVertex
8
0
5
1312
10
1305.000000
20
-1651.000000
30
0.000000
0
VERTEX
100
AcDbEntity
100
AcDbVertex
8
0
5
1313
10
1242.000000
20
-1613.000000
30
0.000000
0
VERTEX
100
AcDbEntity
100
AcDbVertex
8
0
5
1314
10
1307.000000
20
-1578.000000
30
0.000000
0
VERTEX
100
AcDbEntity
100
AcDbVertex
8
0
5
1315
10
1307.000000
20
-1578.000000
30
0.000000
0
SEQEND
0
POLYLINE
100
AcDbEntity
100
AcDb3dPolyline
8
0
5
1316
70
0
66
1
62
0
0
VERTEX
100
AcDbEntity
100
AcDbVertex
8
0
5
1317
10
1236.000000
20
-1535.000000
30
0.000000
0
VERTEX
100
AcDbEntity
100
AcDbVertex
8
0
5
1318
10
1296.000000
20
-1570.000000
30
0.000000
0
VERTEX
100
AcDbEntity
100
AcDbVertex
8
0
5
1319
10
1230.000000
20
-1607.000000
30
0.000000
0
VERTEX
100
AcDbEntity
100
AcDbVertex
8
0
5
131A
10
1167.000000
20
-1570.000000
30
0.000000
0
VERTEX
100
AcDbEntity
100
AcDbVertex
8
0
5
131B
10
1236.000000
20
-1535.000000
30
0.000000
0
VERTEX
100
AcDbEntity
100
AcDbVertex
8
0
5
131C
10
1236.000000
20
-1535.000000
30
0.000000
0
SEQEND
0
POLYLINE
100
AcDbEntity
100
AcDb3dPolyline
8
0
5
131D
70
0
66
1
62
0
0
VERTEX
100
AcDbEntity
100
AcDbVertex
8
0
5
131E
10
1326.000000
20
-1492.000000
30
0.000000
0
VERTEX
100
AcDbEntity
100
AcDbVertex
8
0
5
131F
10
1385.000000
20
-1527.000000
30
0.000000
0
VERTEX
100
AcDbEntity
100
AcDbVertex
8
0
5
1320
10
1320.000000
20
-1562.000000
30
0.000000
0
VERTEX
100
AcDbEntity
100
AcDbVertex
8
0
5
1321
10
1263.000000
20
-1527.000000
30
0.000000
0
VERTEX
100
AcDbEntity
100
AcDbVertex
8
0
5
1322
10
1326.000000
20
-1492.000000
30
0.000000
0
VERTEX
100
AcDbEntity
100
AcDbVertex
8
0
5
1323
10
1326.000000
20
-1492.000000
30
0.000000
0
SEQEND
0
POLYLINE
100
AcDbEntity
100
AcDb3dPolyline
8
0
5
1324
70
0
66
1
62
0
0
VERTEX
100
AcDbEntity
100
AcDbVertex
8
0
5
1325
10
1414.000000
20
-1452.000000
30
0.000000
0
VERTEX
100
AcDbEntity
100
AcDbVertex
8
0
5
1326
10
1473.000000
20
-1484.000000
30
0.000000
0
VERTEX
100
AcDbEntity
100
AcDbVertex
8
0
5
1327
10
1409.000000
20
-1520.000000
30
0.000000
0
VERTEX
100
AcDbEntity
100
AcDbVertex
8
0
5
1328
10
1351.000000
20
-1486.000000
30
0.000000
0
VERTEX
100
AcDbEntity
100
AcDbVertex
8
0
5
1329
10
1414.000000
20
-1452.000000
30
0.000000
0
VERTEX
100
AcDbEntity
100
AcDbVertex
8
0
5
132A
10
1414.000000
20
-1452.000000
30
0.000000
0
SEQEND
0
POLYLINE
100
AcDbEntity
100
AcDb3dPolyline
8
0
5
132B
70
0
66
1
62
0
0
VERTEX
100
AcDbEntity
100
AcDbVertex
8
0
5
132C
10
1504.000000
20
-1407.000000
30
0.000000
0
VERTEX
100
AcDbEntity
100
AcDbVertex
8
0
5
132D
10
1559.000000
20
-1437.000000
30
0.000000
0
VERTEX
100
AcDbEntity
100
AcDbVertex
8
0
5
132E
10
1496.000000
20
-1473.000000
30
0.000000
0
VERTEX
100
AcDbEntity
100
AcDbVertex
8
0
5
132F
10
1439.000000
20
-1442.000000
30
0.000000
0
VERTEX
100
AcDbEntity
100
AcDbVertex
8
0
5
1330
10
1504.000000
20
-1407.000000
30
0.000000
0
VERTEX
100
AcDbEntity
100
AcDbVertex
8
0
5
1331
10
1504.000000
20
-1407.000000
30
0.000000
0
SEQEND
0
POLYLINE
100
AcDbEntity
100
AcDb3dPolyline
8
0
5
1332
70
0
66
1
62
0
0
VERTEX
100
AcDbEntity
100
AcDbVertex
8
0
5
1333
10
1564.000000
20
-1376.000000
30
0.000000
0
VERTEX
100
AcDbEntity
100
AcDbVertex
8
0
5
1334
10
1619.000000
20
-1406.000000
30
0.000000
0
VERTEX
100
AcDbEntity
100
AcDbVertex
8
0
5
1335
10
1574.000000
20
-1431.000000
30
0.000000
0
VERTEX
100
AcDbEntity
100
AcDbVertex
8
0
5
1336
10
1518.000000
20
-1400.000000
30
0.000000
0
VERTEX
100
AcDbEntity
100
AcDbVertex
8
0
5
1337
10
1564.000000
20
-1376.000000
30
0.000000
0
VERTEX
100
AcDbEntity
100
AcDbVertex
8
0
5
1338
10
1564.000000
20
-1376.000000
30
0.000000
0
SEQEND
0
POLYLINE
100
AcDbEntity
100
AcDb3dPolyline
8
0
5
1339
70
0
66
1
62
0
0
VERTEX
100
AcDbEntity
100
AcDbVertex
8
0
5
133A
10
1257.000000
20
-1454.000000
30
0.000000
0
VERTEX
100
AcDbEntity
100
AcDbVertex
8
0
5
133B
10
1316.000000
20
-1489.000000
30
0.000000
0
VERTEX
100
AcDbEntity
100
AcDbVertex
8
0
5
133C
10
1253.000000
20
-1523.000000
30
0.000000
0
VERTEX
100
AcDbEntity
100
AcDbVertex
8
0
5
133D
10
1193.000000
20
-1487.000000
30
0.000000
0
VERTEX
100
AcDbEntity
100
AcDbVertex
8
0
5
133E
10
1257.000000
20
-1454.000000
30
0.000000
0
VERTEX
100
AcDbEntity
100
AcDbVertex
8
0
5
133F
10
1257.000000
20
-1454.000000
30
0.000000
0
SEQEND
0
POLYLINE
100
AcDbEntity
100
AcDb3dPolyline
8
0
5
1340
70
0
66
1
62
0
0
VERTEX
100
AcDbEntity
100
AcDbVertex
8
0
5
1341
10
1345.000000
20
-1410.000000
30
0.000000
0
VERTEX
100
AcDbEntity
100
AcDbVertex
8
0
5
1342
10
1404.000000
20
-1444.000000
30
0.000000
0
VERTEX
100
AcDbEntity
100
AcDbVertex
8
0
5
1343
10
1339.000000
20
-1478.000000
30
0.000000
0
VERTEX
100
AcDbEntity
100
AcDbVertex
8
0
5
1344
10
1280.000000
20
-1444.000000
30
0.000000
0
VERTEX
100
AcDbEntity
100
AcDbVertex
8
0
5
1345
10
1345.000000
20
-1410.000000
30
0.000000
0
VERTEX
100
AcDbEntity
100
AcDbVertex
8
0
5
1346
10
1345.000000
20
-1410.000000
30
0.000000
0
SEQEND
0
POLYLINE
100
AcDbEntity
100
AcDb3dPolyline
8
0
5
1347
70
0
66
1
62
0
0
VERTEX
100
AcDbEntity
100
AcDbVertex
8
0
5
1348
10
1435.000000
20
-1369.000000
30
0.000000
0
VERTEX
100
AcDbEntity
100
AcDbVertex
8
0
5
1349
10
1491.000000
20
-1400.000000
30
0.000000
0
VERTEX
100
AcDbEntity
100
AcDbVertex
8
0
5
134A
10
1427.000000
20
-1435.000000
30
0.000000
0
VERTEX
100
AcDbEntity
100
AcDbVertex
8
0
5
134B
10
1370.000000
20
-1404.000000
30
0.000000
0
VERTEX
100
AcDbEntity
100
AcDbVertex
8
0
5
134C
10
1435.000000
20
-1369.000000
30
0.000000
0
VERTEX
100
AcDbEntity
100
AcDbVertex
8
0
5
134D
10
1435.000000
20
-1369.000000
30
0.000000
0
SEQEND
0
POLYLINE
100
AcDbEntity
100
AcDb3dPolyline
8
0
5
134E
70
0
66
1
62
0
0
VERTEX
100
AcDbEntity
100
AcDbVertex
8
0
5
134F
10
1498.000000
20
-1342.000000
30
0.000000
0
VERTEX
100
AcDbEntity
100
AcDbVertex
8
0
5
1350
10
1551.000000
20
-1370.000000
30
0.000000
0
VERTEX
100
AcDbEntity
100
AcDbVertex
8
0
5
1351
10
1506.000000
20
-1393.000000
30
0.000000
0
VERTEX
100
AcDbEntity
100
AcDbVertex
8
0
5
1352
10
1452.000000
20
-1363.000000
30
0.000000
0
VERTEX
100
AcDbEntity
100
AcDbVertex
8
0
5
1353
10
1498.000000
20
-1342.000000
30
0.000000
0
VERTEX
100
AcDbEntity
100
AcDbVertex
8
0
5
1354
10
1498.000000
20
-1342.000000
30
0.000000
0
SEQEND
0
POLYLINE
100
AcDbEntity
100
AcDb3dPolyline
8
0
5
1355
70
0
66
1
62
0
0
VERTEX
100
AcDbEntity
100
AcDbVertex
8
0
5
1356
10
1166.000000
20
-1494.000000
30
0.000000
0
VERTEX
100
AcDbEntity
100
AcDbVertex
8
0
5
1357
10
1229.000000
20
-1531.000000
30
0.000000
0
VERTEX
100
AcDbEntity
100
AcDbVertex
8
0
5
1358
10
1164.000000
20
-1567.000000
30
0.000000
0
VERTEX
100
AcDbEntity
100
AcDbVertex
8
0
5
1359
10
1101.000000
20
-1529.000000
30
0.000000
0
VERTEX
100
AcDbEntity
100
AcDbVertex
8
0
5
135A
10
1166.000000
20
-1494.000000
30
0.000000
0
VERTEX
100
AcDbEntity
100
AcDbVertex
8
0
5
135B
10
1166.000000
20
-1494.000000
30
0.000000
0
SEQEND
0
POLYLINE
100
AcDbEntity
100
AcDb3dPolyline
8
0
5
135C
70
0
66
1
62
0
0
VERTEX
100
AcDbEntity
100
AcDbVertex
8
0
5
135D
10
1101.000000
20
-1456.000000
30
0.000000
0
VERTEX
100
AcDbEntity
100
AcDbVertex
8
0
5
135E
10
1156.000000
20
-1490.000000
30
0.000000
0
VERTEX
100
AcDbEntity
100
AcDbVertex
8
0
5
135F
10
1094.000000
20
-1525.000000
30
0.000000
0
VERTEX
100
AcDbEntity
100
AcDbVertex
8
0
5
1360
10
1035.000000
20
-1491.000000
30
0.000000
0
VERTEX
100
AcDbEntity
100
AcDbVertex
8
0
5
1361
10
1101.000000
20
-1456.000000
30
0.000000
0
VERTEX
100
AcDbEntity
100
AcDbVertex
8
0
5
1362
10
1101.000000
20
-1456.000000
30
0.000000
0
SEQEND
0
POLYLINE
100
AcDbEntity
100
AcDb3dPolyline
8
0
5
1363
70
0
66
1
62
0
0
VERTEX
100
AcDbEntity
100
AcDbVertex
8
0
5
1364
10
1186.000000
20
-1413.000000
30
0.000000
0
VERTEX
100
AcDbEntity
100
AcDbVertex
8
0
5
1365
10
1245.000000
20
-1447.000000
30
0.000000
0
VERTEX
100
AcDbEntity
100
AcDbVertex
8
0
5
1366
10
1180.000000
20
-1483.000000
30
0.000000
0
VERTEX
100
AcDbEntity
100
AcDbVertex
8
0
5
1367
10
1123.000000
20
-1447.000000
30
0.000000
0
VERTEX
100
AcDbEntity
100
AcDbVertex
8
0
5
1368
10
1186.000000
20
-1413.000000
30
0.000000
0
VERTEX
100
AcDbEntity
100
AcDbVertex
8
0
5
1369
10
1186.000000
20
-1413.000000
30
0.000000
0
SEQEND
0
POLYLINE
100
AcDbEntity
100
AcDb3dPolyline
8
0
5
136A
70
0
66
1
62
0
0
VERTEX
100
AcDbEntity
100
AcDbVertex
8
0
5
136B
10
1274.000000
20
-1371.000000
30
0.000000
0
VERTEX
100
AcDbEntity
100
AcDbVertex
8
0
5
136C
10
1333.000000
20
-1404.000000
30
0.000000
0
VERTEX
100
AcDbEntity
100
AcDbVertex
8
0
5
136D
10
1269.000000
20
-1439.000000
30
0.000000
0
VERTEX
100
AcDbEntity
100
AcDbVertex
8
0
5
136E
10
1211.000000
20
-1406.000000
30
0.000000
0
VERTEX
100
AcDbEntity
100
AcDbVertex
8
0
5
136F
10
1274.000000
20
-1371.000000
30
0.000000
0
VERTEX
100
AcDbEntity
100
AcDbVertex
8
0
5
1370
10
1274.000000
20
-1371.000000
30
0.000000
0
SEQEND
0
POLYLINE
100
AcDbEntity
100
AcDb3dPolyline
8
0
5
1371
70
0
66
1
62
0
0
VERTEX
100
AcDbEntity
100
AcDbVertex
8
0
5
1372
10
1364.000000
20
-1332.000000
30
0.000000
0
VERTEX
100
AcDbEntity
100
AcDbVertex
8
0
5
1373
10
1419.000000
20
-1362.000000
30
0.000000
0
VERTEX
100
AcDbEntity
100
AcDbVertex
8
0
5
1374
10
1356.000000
20
-1398.000000
30
0.000000
0
VERTEX
100
AcDbEntity
100
AcDbVertex
8
0
5
1375
10
1299.000000
20
-1367.000000
30
0.000000
0
VERTEX
100
AcDbEntity
100
AcDbVertex
8
0
5
1376
10
1364.000000
20
-1332.000000
30
0.000000
0
VERTEX
100
AcDbEntity
100
AcDbVertex
8
0
5
1377
10
1364.000000
20
-1332.000000
30
0.000000
0
SEQEND
0
POLYLINE
100
AcDbEntity
100
AcDb3dPolyline
8
0
5
1378
70
0
66
1
62
0
0
VERTEX
100
AcDbEntity
100
AcDbVertex
8
0
5
1379
10
1429.000000
20
-1305.000000
30
0.000000
0
VERTEX
100
AcDbEntity
100
AcDbVertex
8
0
5
137A
10
1483.000000
20
-1333.000000
30
0.000000
0
VERTEX
100
AcDbEntity
100
AcDbVertex
8
0
5
137B
10
1437.000000
20
-1356.000000
30
0.000000
0
VERTEX
100
AcDbEntity
100
AcDbVertex
8
0
5
137C
10
1385.000000
20
-1327.000000
30
0.000000
0
VERTEX
100
AcDbEntity
100
AcDbVertex
8
0
5
137D
10
1429.000000
20
-1305.000000
30
0.000000
0
VERTEX
100
AcDbEntity
100
AcDbVertex
8
0
5
137E
10
1429.000000
20
-1305.000000
30
0.000000
0
SEQEND
0
POLYLINE
100
AcDbEntity
100
AcDb3dPolyline
8
0
5
137F
70
0
66
1
62
0
0
VERTEX
100
AcDbEntity
100
AcDbVertex
8
0
5
1380
10
1120.000000
20
-1377.000000
30
0.000000
0
VERTEX
100
AcDbEntity
100
AcDbVertex
8
0
5
1381
10
1174.000000
20
-1408.000000
30
0.000000
0
VERTEX
100
AcDbEntity
100
AcDbVertex
8
0
5
1382
10
1111.000000
20
-1443.000000
30
0.000000
0
VERTEX
100
AcDbEntity
100
AcDbVertex
8
0
5
1383
10
1054.000000
20
-1409.000000
30
0.000000
0
VERTEX
100
AcDbEntity
100
AcDbVertex
8
0
5
1384
10
1120.000000
20
-1377.000000
30
0.000000
0
VERTEX
100
AcDbEntity
100
AcDbVertex
8
0
5
1385
10
1120.000000
20
-1377.000000
30
0.000000
0
SEQEND
0
POLYLINE
100
AcDbEntity
100
AcDb3dPolyline
8
0
5
1386
70
0
66
1
62
0
0
VERTEX
100
AcDbEntity
100
AcDbVertex
8
0
5
1387
10
1211.000000
20
-1336.000000
30
0.000000
0
VERTEX
100
AcDbEntity
100
AcDbVertex
8
0
5
1388
10
1264.000000
20
-1366.000000
30
0.000000
0
VERTEX
100
AcDbEntity
100
AcDbVertex
8
0
5
1389
10
1199.000000
20
-1400.000000
30
0.000000
0
VERTEX
100
AcDbEntity
100
AcDbVertex
8
0
5
138A
10
1145.000000
20
-1368.000000
30
0.000000
0
VERTEX
100
AcDbEntity
100
AcDbVertex
8
0
5
138B
10
1211.000000
20
-1336.000000
30
0.000000
0
VERTEX
100
AcDbEntity
100
AcDbVertex
8
0
5
138C
10
1211.000000
20
-1336.000000
30
0.000000
0
SEQEND
0
POLYLINE
100
AcDbEntity
100
AcDb3dPolyline
8
0
5
138D
70
0
66
1
62
0
0
VERTEX
100
AcDbEntity
100
AcDbVertex
8
0
5
138E
10
1298.000000
20
-1296.000000
30
0.000000
0
VERTEX
100
AcDbEntity
100
AcDbVertex
8
0
5
138F
10
1353.000000
20
-1327.000000
30
0.000000
0
VERTEX
100
AcDbEntity
100
AcDbVertex
8
0
5
1390
10
1287.000000
20
-1360.000000
30
0.000000
0
VERTEX
100
AcDbEntity
100
AcDbVertex
8
0
5
1391
10
1230.000000
20
-1329.000000
30
0.000000
0
VERTEX
100
AcDbEntity
100
AcDbVertex
8
0
5
1392
10
1298.000000
20
-1296.000000
30
0.000000
0
VERTEX
100
AcDbEntity
100
AcDbVertex
8
0
5
1393
10
1298.000000
20
-1296.000000
30
0.000000
0
SEQEND
0
POLYLINE
100
AcDbEntity
100
AcDb3dPolyline
8
0
5
1394
70
0
66
1
62
0
0
VERTEX
100
AcDbEntity
100
AcDbVertex
8
0
5
1395
10
1359.000000
20
-1268.000000
30
0.000000
0
VERTEX
100
AcDbEntity
100
AcDbVertex
8
0
5
1396
10
1414.000000
20
-1298.000000
30
0.000000
0
VERTEX
100
AcDbEntity
100
AcDbVertex
8
0
5
1397
10
1372.000000
20
-1320.000000
30
0.000000
0
VERTEX
100
AcDbEntity
100
AcDbVertex
8
0
5
1398
10
1316.000000
20
-1289.000000
30
0.000000
0
VERTEX
100
AcDbEntity
100
AcDbVertex
8
0
5
1399
10
1359.000000
20
-1268.000000
30
0.000000
0
VERTEX
100
AcDbEntity
100
AcDbVertex
8
0
5
139A
10
1359.000000
20
-1268.000000
30
0.000000
0
SEQEND
0
POLYLINE
100
AcDbEntity
100
AcDb3dPolyline
8
0
5
139B
70
0
66
1
62
0
0
VERTEX
100
AcDbEntity
100
AcDbVertex
8
0
5
139C
10
1033.000000
20
-1417.000000
30
0.000000
0
VERTEX
100
AcDbEntity
100
AcDbVertex
8
0
5
139D
10
1089.000000
20
-1452.000000
30
0.000000
0
VERTEX
100
AcDbEntity
100
AcDbVertex
8
0
5
139E
10
1022.000000
20
-1484.000000
30
0.000000
0
VERTEX
100
AcDbEntity
100
AcDbVertex
8
0
5
139F
10
965.000000
20
-1451.000000
30
0.000000
0
VERTEX
100
AcDbEntity
100
AcDbVertex
8
0
5
13A0
10
1033.000000
20
-1417.000000
30
0.000000
0
VERTEX
100
AcDbEntity
100
AcDbVertex
8
0
5
13A1
10
1033.000000
20
-1417.000000
30
0.000000
0
SEQEND
0
POLYLINE
100
AcDbEntity
100
AcDb3dPolyline
8
0
5
13A2
70
0
66
1
62
0
0
VERTEX
100
AcDbEntity
100
AcDbVertex
8
0
5
13A3
10
966.000000
20
-1377.000000
30
0.000000
0
VERTEX
100
AcDbEntity
100
AcDbVertex
8
0
5
13A4
10
1019.000000
20
-1409.000000
30
0.000000
0
VERTEX
100
AcDbEntity
100
AcDbVertex
8
0
5
13A5
10
953.000000
20
-1444.000000
30
0.000000
0
VERTEX
100
AcDbEntity
100
AcDbVertex
8
0
5
13A6
10
894.000000
20
-1409.000000
30
0.000000
0
VERTEX
100
AcDbEntity
100
AcDbVertex
8
0
5
13A7
10
966.000000
20
-1377.000000
30
0.000000
0
VERTEX
100
AcDbEntity
100
AcDbVertex
8
0
5
13A8
10
966.000000
20
-1377.000000
30
0.000000
0
SEQEND
0
POLYLINE
100
AcDbEntity
100
AcDb3dPolyline
8
0
5
13A9
70
0
66
1
62
0
0
VERTEX
100
AcDbEntity
100
AcDbVertex
8
0
5
13AA
10
1051.000000
20
-1339.000000
30
0.000000
0
VERTEX
100
AcDbEntity
100
AcDbVertex
8
0
5
13AB
10
1108.000000
20
-1370.000000
30
0.000000
0
VERTEX
100
AcDbEntity
100
AcDbVertex
8
0
5
13AC
10
1041.000000
20
-1402.000000
30
0.000000
0
VERTEX
100
AcDbEntity
100
AcDbVertex
8
0
5
13AD
10
985.000000
20
-1369.000000
30
0.000000
0
VERTEX
100
AcDbEntity
100
AcDbVertex
8
0
5
13AE
10
1051.000000
20
-1339.000000
30
0.000000
0
VERTEX
100
AcDbEntity
100
AcDbVertex
8
0
5
13AF
10
1051.000000
20
-1339.000000
30
0.000000
0
SEQEND
0
POLYLINE
100
AcDbEntity
100
AcDb3dPolyline
8
0
5
13B0
70
0
66
1
62
0
0
VERTEX
100
AcDbEntity
100
AcDbVertex
8
0
5
13B1
10
1142.000000
20
-1298.000000
30
0.000000
0
VERTEX
100
AcDbEntity
100
AcDbVertex
8
0
5
13B2
10
1197.000000
20
-1330.000000
30
0.000000
0
VERTEX
100
AcDbEntity
100
AcDbVertex
8
0
5
13B3
10
1133.000000
20
-1362.000000
30
0.000000
0
VERTEX
100
AcDbEntity
100
AcDbVertex
8
0
5
13B4
10
1074.000000
20
-1329.000000
30
0.000000
0
VERTEX
100
AcDbEntity
100
AcDbVertex
8
0
5
13B5
10
1142.000000
20
-1298.000000
30
0.000000
0
VERTEX
100
AcDbEntity
100
AcDbVertex
8
0
5
13B6
10
1142.000000
20
-1298.000000
30
0.000000
0
SEQEND
0
POLYLINE
100
AcDbEntity
100
AcDb3dPolyline
8
0
5
13B7
70
0
66
1
62
0
0
VERTEX
100
AcDbEntity
100
AcDbVertex
8
0
5
13B8
10
1229.000000
20
-1259.000000
30
0.000000
0
VERTEX
100
AcDbEntity
100
AcDbVertex
8
0
5
13B9
10
1287.000000
20
-1289.000000
30
0.000000
0
VERTEX
100
AcDbEntity
100
AcDbVertex
8
0
5
13BA
10
1218.000000
20
-1322.000000
30
0.000000
0
VERTEX
100
AcDbEntity
100
AcDbVertex
8
0
5
13BB
10
1162.000000
20
-1291.000000
30
0.000000
0
VERTEX
100
AcDbEntity
100
AcDbVertex
8
0
5
13BC
10
1229.000000
20
-1259.000000
30
0.000000
0
VERTEX
100
AcDbEntity
100
AcDbVertex
8
0
5
13BD
10
1229.000000
20
-1259.000000
30
0.000000
0
SEQEND
0
POLYLINE
100
AcDbEntity
100
AcDb3dPolyline
8
0
5
13BE
70
0
66
1
62
0
0
VERTEX
100
AcDbEntity
100
AcDbVertex
8
0
5
13BF
10
1291.000000
20
-1232.000000
30
0.000000
0
VERTEX
100
AcDbEntity
100
AcDbVertex
8
0
5
13C0
10
1346.000000
20
-1262.000000
30
0.000000
0
VERTEX
100
AcDbEntity
100
AcDbVertex
8
0
5
13C1
10
1305.000000
20
-1283.000000
30
0.000000
0
VERTEX
100
AcDbEntity
100
AcDbVertex
8
0
5
13C2
10
1250.000000
20
-1252.000000
30
0.000000
0
VERTEX
100
AcDbEntity
100
AcDbVertex
8
0
5
13C3
10
1291.000000
20
-1232.000000
30
0.000000
0
VERTEX
100
AcDbEntity
100
AcDbVertex
8
0
5
13C4
10
1291.000000
20
-1232.000000
30
0.000000
0
SEQEND
0
POLYLINE
100
AcDbEntity
100
AcDb3dPolyline
8
0
5
13C5
70
0
66
1
62
0
0
VERTEX
100
AcDbEntity
100
AcDbVertex
8
0
5
13C6
10
994.000000
20
-1304.000000
30
0.000000
0
VERTEX
100
AcDbEntity
100
AcDbVertex
8
0
5
13C7
10
1040.000000
20
-1332.000000
30
0.000000
0
VERTEX
100
AcDbEntity
100
AcDbVertex
8
0
5
13C8
10
973.000000
20
-1362.000000
30
0.000000
0
VERTEX
100
AcDbEntity
100
AcDbVertex
8
0
5
13C9
10
925.000000
20
-1335.000000
30
0.000000
0
VERTEX
100
AcDbEntity
100
AcDbVertex
8
0
5
13CA
10
994.000000
20
-1304.000000
30
0.000000
0
VERTEX
100
AcDbEntity
100
AcDbVertex
8
0
5
13CB
10
994.000000
20
-1304.000000
30
0.000000
0
SEQEND
0
POLYLINE
100
AcDbEntity
100
AcDb3dPolyline
8
0
5
13CC
70
0
66
1
62
0
0
VERTEX
100
AcDbEntity
100
AcDbVertex
8
0
5
13CD
10
1080.000000
20
-1263.000000
30
0.000000
0
VERTEX
100
AcDbEntity
100
AcDbVertex
8
0
5
13CE
10
1129.000000
20
-1292.000000
30
0.000000
0
VERTEX
100
AcDbEntity
100
AcDbVertex
8
0
5
13CF
10
1062.000000
20
-1322.000000
30
0.000000
0
VERTEX
100
AcDbEntity
100
AcDbVertex
8
0
5
13D0
10
1015.000000
20
-1296.000000
30
0.000000
0
VERTEX
100
AcDbEntity
100
AcDbVertex
8
0
5
13D1
10
1080.000000
20
-1263.000000
30
0.000000
0
VERTEX
100
AcDbEntity
100
AcDbVertex
8
0
5
13D2
10
1080.000000
20
-1263.000000
30
0.000000
0
SEQEND
0
POLYLINE
100
AcDbEntity
100
AcDb3dPolyline
8
0
5
13D3
70
0
66
1
62
0
0
VERTEX
100
AcDbEntity
100
AcDbVertex
8
0
5
13D4
10
1170.000000
20
-1224.000000
30
0.000000
0
VERTEX
100
AcDbEntity
100
AcDbVertex
8
0
5
13D5
10
1218.000000
20
-1252.000000
30
0.000000
0
VERTEX
100
AcDbEntity
100
AcDbVertex
8
0
5
13D6
10
1148.000000
20
-1283.000000
30
0.000000
0
VERTEX
100
AcDbEntity
100
AcDbVertex
8
0
5
13D7
10
1098.000000
20
-1256.000000
30
0.000000
0
VERTEX
100
AcDbEntity
100
AcDbVertex
8
0
5
13D8
10
1170.000000
20
-1224.000000
30
0.000000
0
VERTEX
100
AcDbEntity
100
AcDbVertex
8
0
5
13D9
10
1170.000000
20
-1224.000000
30
0.000000
0
SEQEND
0
POLYLINE
100
AcDbEntity
100
AcDb3dPolyline
8
0
5
13DA
70
0
66
1
62
0
0
VERTEX
100
AcDbEntity
100
AcDbVertex
8
0
5
13DB
10
1225.000000
20
-1197.000000
30
0.000000
0
VERTEX
100
AcDbEntity
100
AcDbVertex
8
0
5
13DC
10
1277.000000
20
-1224.000000
30
0.000000
0
VERTEX
100
AcDbEntity
100
AcDbVertex
8
0
5
13DD
10
1235.000000
20
-1245.000000
30
0.000000
0
VERTEX
100
AcDbEntity
100
AcDbVertex
8
0
5
13DE
10
1183.000000
20
-1216.000000
30
0.000000
0
VERTEX
100
AcDbEntity
100
AcDbVertex
8
0
5
13DF
10
1225.000000
20
-1197.000000
30
0.000000
0
VERTEX
100
AcDbEntity
100
AcDbVertex
8
0
5
13E0
10
1225.000000
20
-1197.000000
30
0.000000
0
SEQEND
0
POLYLINE
100
AcDbEntity
100
AcDb3dPolyline
8
0
5
13E1
70
0
66
1
62
0
0
VERTEX
100
AcDbEntity
100
AcDbVertex
8
0
5
13E2
10
908.000000
20
-1345.000000
30
0.000000
0
VERTEX
100
AcDbEntity
100
AcDbVertex
8
0
5
13E3
10
953.000000
20
-1370.000000
30
0.000000
0
VERTEX
100
AcDbEntity
100
AcDbVertex
8
0
5
13E4
10
884.000000
20
-1402.000000
30
0.000000
0
VERTEX
100
AcDbEntity
100
AcDbVertex
8
0
5
13E5
10
837.000000
20
-1377.000000
30
0.000000
0
VERTEX
100
AcDbEntity
100
AcDbVertex
8
0
5
13E6
10
908.000000
20
-1345.000000
30
0.000000
0
VERTEX
100
AcDbEntity
100
AcDbVertex
8
0
5
13E7
10
908.000000
20
-1345.000000
30
0.000000
0
SEQEND
0
POLYLINE
100
AcDbEntity
100
AcDb3dPolyline
8
0
5
13E8
70
0
66
1
62
0
0
VERTEX
100
AcDbEntity
100
AcDbVertex
8
0
5
13E9
10
916.000000
20
-1259.000000
30
0.000000
0
VERTEX
100
AcDbEntity
100
AcDbVertex
8
0
5
13EA
10
980.000000
20
-1298.000000
30
0.000000
0
VERTEX
100
AcDbEntity
100
AcDbVertex
8
0
5
13EB
10
915.000000
20
-1329.000000
30
0.000000
0
VERTEX
100
AcDbEntity
100
AcDbVertex
8
0
5
13EC
10
846.000000
20
-1289.000000
30
0.000000
0
VERTEX
100
AcDbEntity
100
AcDbVertex
8
0
5
13ED
10
916.000000
20
-1259.000000
30
0.000000
0
VERTEX
100
AcDbEntity
100
AcDbVertex
8
0
5
13EE
10
916.000000
20
-1259.000000
30
0.000000
0
SEQEND
0
POLYLINE
100
AcDbEntity
100
AcDb3dPolyline
8
0
5
13EF
70
0
66
1
62
0
0
VERTEX
100
AcDbEntity
100
AcDbVertex
8
0
5
13F0
10
1004.000000
20
-1222.000000
30
0.000000
0
VERTEX
100
AcDbEntity
100
AcDbVertex
8
0
5
13F1
10
1069.000000
20
-1258.000000
30
0.000000
0
VERTEX
100
AcDbEntity
100
AcDbVertex
8
0
5
13F2
10
1001.000000
20
-1288.000000
30
0.000000
0
VERTEX
100
AcDbEntity
100
AcDbVertex
8
0
5
13F3
10
935.000000
20
-1251.000000
30
0.000000
0
VERTEX
100
AcDbEntity
100
AcDbVertex
8
0
5
13F4
10
1004.000000
20
-1222.000000
30
0.000000
0
VERTEX
100
AcDbEntity
100
AcDbVertex
8
0
5
13F5
10
1004.000000
20
-1222.000000
30
0.000000
0
SEQEND
0
POLYLINE
100
AcDbEntity
100
AcDb3dPolyline
8
0
5
13F6
70
0
66
1
62
0
0
VERTEX
100
AcDbEntity
100
AcDbVertex
8
0
5
13F7
10
1095.000000
20
-1184.000000
30
0.000000
0
VERTEX
100
AcDbEntity
100
AcDbVertex
8
0
5
13F8
10
1155.000000
20
-1217.000000
30
0.000000
0
VERTEX
100
AcDbEntity
100
AcDbVertex
8
0
5
13F9
10
1086.000000
20
-1248.000000
30
0.000000
0
VERTEX
100
AcDbEntity
100
AcDbVertex
8
0
5
13FA
10
1024.000000
20
-1214.000000
30
0.000000
0
VERTEX
100
AcDbEntity
100
AcDbVertex
8
0
5
13FB
10
1095.000000
20
-1184.000000
30
0.000000
0
VERTEX
100
AcDbEntity
100
AcDbVertex
8
0
5
13FC
10
1095.000000
20
-1184.000000
30
0.000000
0
SEQEND
0
POLYLINE
100
AcDbEntity
100
AcDb3dPolyline
8
0
5
13FD
70
0
66
1
62
0
0
VERTEX
100
AcDbEntity
100
AcDbVertex
8
0
5
13FE
10
1155.000000
20
-1160.000000
30
0.000000
0
VERTEX
100
AcDbEntity
100
AcDbVertex
8
0
5
13FF
10
1211.000000
20
-1190.000000
30
0.000000
0
VERTEX
100
AcDbEntity
100
AcDbVertex
8
0
5
1400
10
1172.000000
20
-1209.000000
30
0.000000
0
VERTEX
100
AcDbEntity
100
AcDbVertex
8
0
5
1401
10
1112.000000
20
-1177.000000
30
0.000000
0
VERTEX
100
AcDbEntity
100
AcDbVertex
8
0
5
1402
10
1155.000000
20
-1160.000000
30
0.000000
0
VERTEX
100
AcDbEntity
100
AcDbVertex
8
0
5
1403
10
1155.000000
20
-1160.000000
30
0.000000
0
SEQEND
0
POLYLINE
100
AcDbEntity
100
AcDb3dPolyline
8
0
5
1404
70
0
66
1
62
0
0
VERTEX
100
AcDbEntity
100
AcDbVertex
8
0
5
1405
10
826.000000
20
-1296.000000
30
0.000000
0
VERTEX
100
AcDbEntity
100
AcDbVertex
8
0
5
1406
10
898.000000
20
-1337.000000
30
0.000000
0
VERTEX
100
AcDbEntity
100
AcDbVertex
8
0
5
1407
10
829.000000
20
-1369.000000
30
0.000000
0
VERTEX
100
AcDbEntity
100
AcDbVertex
8
0
5
1408
10
754.000000
20
-1327.000000
30
0.000000
0
VERTEX
100
AcDbEntity
100
AcDbVertex
8
0
5
1409
10
826.000000
20
-1296.000000
30
0.000000
0
VERTEX
100
AcDbEntity
100
AcDbVertex
8
0
5
140A
10
826.000000
20
-1296.000000
30
0.000000
0
SEQEND
0
POLYLINE
100
AcDbEntity
100
AcDb3dPolyline
8
0
5
140B
70
0
66
1
62
0
0
VERTEX
100
AcDbEntity
100
AcDbVertex
8
0
5
140C
10
699.000000
20
-1223.000000
30
0.000000
0
VERTEX
100
AcDbEntity
100
AcDbVertex
8
0
5
140D
10
810.000000
20
-1290.000000
30
0.000000
0
VERTEX
100
AcDbEntity
100
AcDbVertex
8
0
5
140E
10
740.000000
20
-1319.000000
30
0.000000
0
VERTEX
100
AcDbEntity
100
AcDbVertex
8
0
5
140F
10
628.000000
20
-1253.000000
30
0.000000
0
VERTEX
100
AcDbEntity
100
AcDbVertex
8
0
5
1410
10
699.000000
20
-1223.000000
30
0.000000
0
VERTEX
100
AcDbEntity
100
AcDbVertex
8
0
5
1411
10
699.000000
20
-1223.000000
30
0.000000
0
SEQEND
0
POLYLINE
100
AcDbEntity
100
AcDb3dPolyline
8
0
5
1412
70
0
66
1
62
0
0
VERTEX
100
AcDbEntity
100
AcDbVertex
8
0
5
1413
10
653.000000
20
-1178.000000
30
0.000000
0
VERTEX
100
AcDbEntity
100
AcDbVertex
8
0
5
1414
10
832.000000
20
-1282.000000
30
0.000000
0
VERTEX
100
AcDbEntity
100
AcDbVertex
8
0
5
1415
10
901.000000
20
-1252.000000
30
0.000000
0
VERTEX
100
AcDbEntity
100
AcDbVertex
8
0
5
1416
10
776.000000
20
-1177.000000
30
0.000000
0
VERTEX
100
AcDbEntity
100
AcDbVertex
8
0
5
1417
10
864.000000
20
-1142.000000
30
0.000000
0
VERTEX
100
AcDbEntity
100
AcDbVertex
8
0
5
1418
10
821.000000
20
-1117.000000
30
0.000000
0
VERTEX
100
AcDbEntity
100
AcDbVertex
8
0
5
1419
10
653.000000
20
-1178.000000
30
0.000000
0
VERTEX
100
AcDbEntity
100
AcDbVertex
8
0
5
141A
10
653.000000
20
-1178.000000
30
0.000000
0
SEQEND
0
POLYLINE
100
AcDbEntity
100
AcDb3dPolyline
8
0
5
141B
70
0
66
1
62
0
0
VERTEX
100
AcDbEntity
100
AcDbVertex
8
0
5
141C
10
806.000000
20
-1177.000000
30
0.000000
0
VERTEX
100
AcDbEntity
100
AcDbVertex
8
0
5
141D
10
922.000000
20
-1245.000000
30
0.000000
0
VERTEX
100
AcDbEntity
100
AcDbVertex
8
0
5
141E
10
993.000000
20
-1215.000000
30
0.000000
0
VERTEX
100
AcDbEntity
100
AcDbVertex
8
0
5
141F
10
876.000000
20
-1148.000000
30
0.000000
0
VERTEX
100
AcDbEntity
100
AcDbVertex
8
0
5
1420
10
806.000000
20
-1177.000000
30
0.000000
0
VERTEX
100
AcDbEntity
100
AcDbVertex
8
0
5
1421
10
806.000000
20
-1177.000000
30
0.000000
0
SEQEND
0
POLYLINE
100
AcDbEntity
100
AcDb3dPolyline
8
0
5
1422
70
0
66
1
62
0
0
VERTEX
100
AcDbEntity
100
AcDbVertex
8
0
5
1423
10
963.000000
20
-1181.000000
30
0.000000
0
VERTEX
100
AcDbEntity
100
AcDbVertex
8
0
5
1424
10
1012.000000
20
-1209.000000
30
0.000000
0
VERTEX
100
AcDbEntity
100
AcDbVertex
8
0
5
1425
10
1084.000000
20
-1177.000000
30
0.000000
0
VERTEX
100
AcDbEntity
100
AcDbVertex
8
0
5
1426
10
1032.000000
20
-1150.000000
30
0.000000
0
VERTEX
100
AcDbEntity
100
AcDbVertex
8
0
5
1427
10
963.000000
20
-1181.000000
30
0.000000
0
VERTEX
100
AcDbEntity
100
AcDbVertex
8
0
5
1428
10
963.000000
20
-1181.000000
30
0.000000
0
SEQEND
0
POLYLINE
100
AcDbEntity
100
AcDb3dPolyline
8
0
5
1429
70
0
66
1
62
0
0
VERTEX
100
AcDbEntity
100
AcDbVertex
8
0
5
142A
10
892.000000
20
-1143.000000
30
0.000000
0
VERTEX
100
AcDbEntity
100
AcDbVertex
8
0
5
142B
10
949.000000
20
-1174.000000
30
0.000000
0
VERTEX
100
AcDbEntity
100
AcDbVertex
8
0
5
142C
10
1018.000000
20
-1143.000000
30
0.000000
0
VERTEX
100
AcDbEntity
100
AcDbVertex
8
0
5
142D
10
963.000000
20
-1112.000000
30
0.000000
0
VERTEX
100
AcDbEntity
100
AcDbVertex
8
0
5
142E
10
892.000000
20
-1143.000000
30
0.000000
0
VERTEX
100
AcDbEntity
100
AcDbVertex
8
0
5
142F
10
892.000000
20
-1143.000000
30
0.000000
0
SEQEND
0
POLYLINE
100
AcDbEntity
100
AcDb3dPolyline
8
0
5
1430
70
0
66
1
62
0
0
VERTEX
100
AcDbEntity
100
AcDbVertex
8
0
5
1431
10
832.000000
20
-1109.000000
30
0.000000
0
VERTEX
100
AcDbEntity
100
AcDbVertex
8
0
5
1432
10
880.000000
20
-1136.000000
30
0.000000
0
VERTEX
100
AcDbEntity
100
AcDbVertex
8
0
5
1433
10
950.000000
20
-1106.000000
30
0.000000
0
VERTEX
100
AcDbEntity
100
AcDbVertex
8
0
5
1434
10
908.000000
20
-1082.000000
30
0.000000
0
VERTEX
100
AcDbEntity
100
AcDbVertex
8
0
5
1435
10
832.000000
20
-1109.000000
30
0.000000
0
VERTEX
100
AcDbEntity
100
AcDbVertex
8
0
5
1436
10
832.000000
20
-1109.000000
30
0.000000
0
SEQEND
0
POLYLINE
100
AcDbEntity
100
AcDb3dPolyline
8
0
5
1437
70
0
66
1
62
0
0
VERTEX
100
AcDbEntity
100
AcDbVertex
8
0
5
1438
10
929.000000
20
-1076.000000
30
0.000000
0
VERTEX
100
AcDbEntity
100
AcDbVertex
8
0
5
1439
10
970.000000
20
-1098.000000
30
0.000000
0
VERTEX
100
AcDbEntity
100
AcDbVertex
8
0
5
143A
10
1007.000000
20
-1082.000000
30
0.000000
0
VERTEX
100
AcDbEntity
100
AcDbVertex
8
0
5
143B
10
966.000000
20
-1060.000000
30
0.000000
0
VERTEX
100
AcDbEntity
100
AcDbVertex
8
0
5
143C
10
929.000000
20
-1076.000000
30
0.000000
0
VERTEX
100
AcDbEntity
100
AcDbVertex
8
0
5
143D
10
929.000000
20
-1076.000000
30
0.000000
0
SEQEND
0
POLYLINE
100
AcDbEntity
100
AcDb3dPolyline
8
0
5
143E
70
0
66
1
62
0
0
VERTEX
100
AcDbEntity
100
AcDbVertex
8
0
5
143F
10
980.000000
20
-1105.000000
30
0.000000
0
VERTEX
100
AcDbEntity
100
AcDbVertex
8
0
5
1440
10
1036.000000
20
-1135.000000
30
0.000000
0
VERTEX
100
AcDbEntity
100
AcDbVertex
8
0
5
1441
10
1073.000000
20
-1117.000000
30
0.000000
0
VERTEX
100
AcDbEntity
100
AcDbVertex
8
0
5
1442
10
1020.000000
20
-1088.000000
30
0.000000
0
VERTEX
100
AcDbEntity
100
AcDbVertex
8
0
5
1443
10
980.000000
20
-1105.000000
30
0.000000
0
VERTEX
100
AcDbEntity
100
AcDbVertex
8
0
5
1444
10
980.000000
20
-1105.000000
30
0.000000
0
SEQEND
0
POLYLINE
100
AcDbEntity
100
AcDb3dPolyline
8
0
5
1445
70
0
66
1
62
0
0
VERTEX
100
AcDbEntity
100
AcDbVertex
8
0
5
1446
10
564.000000
20
-1215.000000
30
0.000000
0
VERTEX
100
AcDbEntity
100
AcDbVertex
8
0
5
1447
10
615.000000
20
-1246.000000
30
0.000000
0
VERTEX
100
AcDbEntity
100
AcDbVertex
8
0
5
1448
10
686.000000
20
-1216.000000
30
0.000000
0
VERTEX
100
AcDbEntity
100
AcDbVertex
8
0
5
1449
10
639.000000
20
-1186.000000
30
0.000000
0
VERTEX
100
AcDbEntity
100
AcDbVertex
8
0
5
144A
10
564.000000
20
-1215.000000
30
0.000000
0
VERTEX
100
AcDbEntity
100
AcDbVertex
8
0
5
144B
10
564.000000
20
-1215.000000
30
0.000000
0
SEQEND
0
POLYLINE
100
AcDbEntity
100
AcDb3dPolyline
8
0
5
144C
70
0
66
1
62
0
0
VERTEX
100
AcDbEntity
100
AcDbVertex
8
0
5
144D
10
1048.000000
20
-1142.000000
30
0.000000
0
VERTEX
100
AcDbEntity
100
AcDbVertex
8
0
5
144E
10
1102.000000
20
-1171.000000
30
0.000000
0
VERTEX
100
AcDbEntity
100
AcDbVertex
8
0
5
144F
10
1142.000000
20
-1153.000000
30
0.000000
0
VERTEX
100
AcDbEntity
100
AcDbVertex
8
0
5
1450
10
1086.000000
20
-1123.000000
30
0.000000
0
VERTEX
100
AcDbEntity
100
AcDbVertex
8
0
5
1451
10
1048.000000
20
-1142.000000
30
0.000000
0
VERTEX
100
AcDbEntity
100
AcDbVertex
8
0
5
1452
10
1048.000000
20
-1142.000000
30
0.000000
0
SEQEND
0
POLYLINE
100
AcDbEntity
100
AcDb3dPolyline
8
0
5
1453
70
0
66
1
62
1
0
VERTEX
100
AcDbEntity
100
AcDbVertex
8
0
5
1454
10
2673.000000
20
-1382.000000
30
0.000000
0
VERTEX
100
AcDbEntity
100
AcDbVertex
8
0
5
1455
10
2760.000000
20
-1343.000000
30
0.000000
0
VERTEX
100
AcDbEntity
100
AcDbVertex
8
0
5
1456
10
2760.000000
20
-1398.000000
30
0.000000
0
VERTEX
100
AcDbEntity
100
AcDbVertex
8
0
5
1457
10
2673.000000
20
-1443.000000
30
0.000000
0
VERTEX
100
AcDbEntity
100
AcDbVertex
8
0
5
1458
10
2673.000000
20
-1382.000000
30
0.000000
0
VERTEX
100
AcDbEntity
100
AcDbVertex
8
0
5
1459
10
2673.000000
20
-1382.000000
30
0.000000
0
SEQEND
0
POLYLINE
100
AcDbEntity
100
AcDb3dPolyline
8
0
5
145A
70
0
66
1
62
252
0
VERTEX
100
AcDbEntity
100
AcDbVertex
8
0
5
145B
10
1320.000000
20
-1914.000000
30
0.000000
0
VERTEX
100
AcDbEntity
100
AcDbVertex
8
0
5
145C
10
1927.000000
20
-1563.000000
30
0.000000
0
VERTEX
100
AcDbEntity
100
AcDbVertex
8
0
5
145D
10
1983.000000
20
-1541.000000
30
0.000000
0
VERTEX
100
AcDbEntity
100
AcDbVertex
8
0
5
145E
10
1983.000000
20
-1584.000000
30
0.000000
0
VERTEX
100
AcDbEntity
100
AcDbVertex
8
0
5
145F
10
1320.000000
20
-1914.000000
30
0.000000
0
VERTEX
100
AcDbEntity
100
AcDbVertex
8
0
5
1460
10
1320.000000
20
-1914.000000
30
0.000000
0
SEQEND
0
POLYLINE
100
AcDbEntity
100
AcDb3dPolyline
8
0
5
1461
70
0
66
1
62
7
0
VERTEX
100
AcDbEntity
100
AcDbVertex
8
0
5
1462
10
1320.000000
20
-2018.000000
30
0.000000
0
VERTEX
100
AcDbEntity
100
AcDbVertex
8
0
5
1463
10
1320.000000
20
-1894.000000
30
0.000000
0
VERTEX
100
AcDbEntity
100
AcDbVertex
8
0
5
1464
10
1991.000000
20
-1577.000000
30
0.000000
0
VERTEX
100
AcDbEntity
100
AcDbVertex
8
0
5
1465
10
1991.000000
20
-1732.000000
30
0.000000
0
VERTEX
100
AcDbEntity
100
AcDbVertex
8
0
5
1466
10
1320.000000
20
-2018.000000
30
0.000000
0
VERTEX
100
AcDbEntity
100
AcDbVertex
8
0
5
1467
10
1320.000000
20
-2018.000000
30
0.000000
0
SEQEND
0
POLYLINE
100
AcDbEntity
100
AcDb3dPolyline
8
0
5
1468
70
0
66
1
62
252
0
VERTEX
100
AcDbEntity
100
AcDbVertex
8
0
5
1469
10
1083.000000
20
-2029.000000
30
0.000000
0
VERTEX
100
AcDbEntity
100
AcDbVertex
8
0
5
146A
10
1044.000000
20
-2044.000000
30
0.000000
0
VERTEX
100
AcDbEntity
100
AcDbVertex
8
0
5
146B
10
1028.000000
20
-2060.000000
30
0.000000
0
VERTEX
100
AcDbEntity
100
AcDbVertex
8
0
5
146C
10
15.000000
20
-1399.000000
30
0.000000
0
VERTEX
100
AcDbEntity
100
AcDbVertex
8
0
5
146D
10
40.000000
20
-1394.000000
30
0.000000
0
VERTEX
100
AcDbEntity
100
AcDbVertex
8
0
5
146E
10
63.000000
20
-1391.000000
30
0.000000
0
VERTEX
100
AcDbEntity
100
AcDbVertex
8
0
5
146F
10
87.000000
20
-1391.000000
30
0.000000
0
VERTEX
100
AcDbEntity
100
AcDbVertex
8
0
5
1470
10
113.000000
20
-1397.000000
30
0.000000
0
VERTEX
100
AcDbEntity
100
AcDbVertex
8
0
5
1471
10
1083.000000
20
-2029.000000
30
0.000000
0
VERTEX
100
AcDbEntity
100
AcDbVertex
8
0
5
1472
10
1083.000000
20
-2029.000000
30
0.000000
0
SEQEND
0
POLYLINE
100
AcDbEntity
100
AcDb3dPolyline
8
0
5
1473
70
0
66
1
62
8
0
VERTEX
100
AcDbEntity
100
AcDbVertex
8
0
5
1474
10
17.000000
20
-1399.000000
30
0.000000
0
VERTEX
100
AcDbEntity
100
AcDbVertex
8
0
5
1475
10
1028.000000
20
-2059.000000
30
0.000000
0
VERTEX
100
AcDbEntity
100
AcDbVertex
8
0
5
1476
10
1022.000000
20
-2083.000000
30
0.000000
0
VERTEX
100
AcDbEntity
100
AcDbVertex
8
0
5
1477
10
1037.000000
20
-2113.000000
30
0.000000
0
VERTEX
100
AcDbEntity
100
AcDbVertex
8
0
5
1478
10
0.000000
20
-1432.000000
30
0.000000
0
VERTEX
100
AcDbEntity
100
AcDbVertex
8
0
5
1479
10
0.000000
20
-1412.000000
30
0.000000
0
VERTEX
100
AcDbEntity
100
AcDbVertex
8
0
5
147A
10
17.000000
20
-1399.000000
30
0.000000
0
VERTEX
100
AcDbEntity
100
AcDbVertex
8
0
5
147B
10
17.000000
20
-1399.000000
30
0.000000
0
SEQEND
0
POLYLINE
100
AcDbEntity
100
AcDb3dPolyline
8
0
5
147C
70
0
66
1
62
252
0
VERTEX
100
AcDbEntity
100
AcDbVertex
8
0
5
147D
10
1797.000000
20
-1721.000000
30
0.000000
0
VERTEX
100
AcDbEntity
100
AcDbVertex
8
0
5
147E
10
1037.000000
20
-2032.000000
30
0.000000
0
VERTEX
100
AcDbEntity
100
AcDbVertex
8
0
5
147F
10
1021.000000
20
-2049.000000
30
0.000000
0
VERTEX
100
AcDbEntity
100
AcDbVertex
8
0
5
1480
10
1015.000000
20
-2069.000000
30
0.000000
0
VERTEX
100
AcDbEntity
100
AcDbVertex
8
0
5
1481
10
1022.000000
20
-2086.000000
30
0.000000
0
VERTEX
100
AcDbEntity
100
AcDbVertex
8
0
5
1482
10
1031.000000
20
-2103.000000
30
0.000000
0
VERTEX
100
AcDbEntity
100
AcDbVertex
8
0
5
1483
10
1045.000000
20
-2110.000000
30
0.000000
0
VERTEX
100
AcDbEntity
100
AcDbVertex
8
0
5
1484
10
1778.000000
20
-1800.000000
30
0.000000
0
VERTEX
100
AcDbEntity
100
AcDbVertex
8
0
5
1485
10
1797.000000
20
-1721.000000
30
0.000000
0
VERTEX
100
AcDbEntity
100
AcDbVertex
8
0
5
1486
10
1797.000000
20
-1721.000000
30
0.000000
0
SEQEND
0
POLYLINE
100
AcDbEntity
100
AcDb3dPolyline
8
0
5
1487
70
0
66
1
62
253
0
VERTEX
100
AcDbEntity
100
AcDbVertex
8
0
5
1488
10
1803.000000
20
-1733.000000
30
0.000000
0
VERTEX
100
AcDbEntity
100
AcDbVertex
8
0
5
1489
10
1043.000000
20
-2044.000000
30
0.000000
0
VERTEX
100
AcDbEntity
100
AcDbVertex
8
0
5
148A
10
1027.000000
20
-2061.000000
30
0.000000
0
VERTEX
100
AcDbEntity
100
AcDbVertex
8
0
5
148B
10
1021.000000
20
-2081.000000
30
0.000000
0
VERTEX
100
AcDbEntity
100
AcDbVertex
8
0
5
148C
10
1028.000000
20
-2098.000000
30
0.000000
0
VERTEX
100
AcDbEntity
100
AcDbVertex
8
0
5
148D
10
1037.000000
20
-2114.000000
30
0.000000
0
VERTEX
100
AcDbEntity
100
AcDbVertex
8
0
5
148E
10
1051.000000
20
-2122.000000
30
0.000000
0
VERTEX
100
AcDbEntity
100
AcDbVertex
8
0
5
148F
10
1784.000000
20
-1812.000000
30
0.000000
0
VERTEX
100
AcDbEntity
100
AcDbVertex
8
0
5
1490
10
1803.000000
20
-1733.000000
30
0.000000
0
VERTEX
100
AcDbEntity
100
AcDbVertex
8
0
5
1491
10
1803.000000
20
-1733.000000
30
0.000000
0
SEQEND
0
POLYLINE
100
AcDbEntity
100
AcDb3dPolyline
8
Monitor
5
1492
70
0
66
1
62
8
0
VERTEX
100
AcDbEntity
100
AcDbVertex
8
Monitor
5
1493
10
2481.000000
20
-519.000000
30
0.000000
0
VERTEX
100
AcDbEntity
100
AcDbVertex
8
Monitor
5
1494
10
2508.000000
20
-574.000000
30
0.000000
0
VERTEX
100
AcDbEntity
100
AcDbVertex
8
Monitor
5
1495
10
2128.000000
20
-1332.000000
30
0.000000
0
VERTEX
100
AcDbEntity
100
AcDbVertex
8
Monitor
5
1496
10
2100.000000
20
-1275.000000
30
0.000000
0
VERTEX
100
AcDbEntity
100
AcDbVertex
8
Monitor
5
1497
10
2481.000000
20
-519.000000
30
0.000000
0
VERTEX
100
AcDbEntity
100
AcDbVertex
8
Monitor
5
1498
10
2481.000000
20
-519.000000
30
0.000000
0
SEQEND
0
POLYLINE
100
AcDbEntity
100
AcDb3dPolyline
8
Monitor
5
1499
70
0
66
1
62
253
0
VERTEX
100
AcDbEntity
100
AcDbVertex
8
Monitor
5
149A
10
1482.000000
20
-60.000000
30
0.000000
0
VERTEX
100
AcDbEntity
100
AcDbVertex
8
Monitor
5
149B
10
2489.000000
20
-519.000000
30
0.000000
0
VERTEX
100
AcDbEntity
100
AcDbVertex
8
Monitor
5
149C
10
2109.000000
20
-1277.000000
30
0.000000
0
VERTEX
100
AcDbEntity
100
AcDbVertex
8
Monitor
5
149D
10
1107.000000
20
-774.000000
30
0.000000
0
VERTEX
100
AcDbEntity
100
AcDbVertex
8
Monitor
5
149E
10
1482.000000
20
-60.000000
30
0.000000
0
VERTEX
100
AcDbEntity
100
AcDbVertex
8
Monitor
5
149F
10
1482.000000
20
-60.000000
30
0.000000
0
SEQEND
0
POLYLINE
100
AcDbEntity
100
AcDb3dPolyline
8
Monitor
5
14A0
70
0
66
1
62
250
0
VERTEX
100
AcDbEntity
100
AcDbVertex
8
Monitor
5
14A1
10
2415.000000
20
-561.000000
30
0.000000
0
VERTEX
100
AcDbEntity
100
AcDbVertex
8
Monitor
5
14A2
10
2099.000000
20
-1185.000000
30
0.000000
0
VERTEX
100
AcDbEntity
100
AcDbVertex
8
Monitor
5
14A3
10
1184.000000
20
-729.000000
30
0.000000
0
VERTEX
100
AcDbEntity
100
AcDbVertex
8
Monitor
5
14A4
10
1490.000000
20
-132.000000
30
0.000000
0
VERTEX
100
AcDbEntity
100
AcDbVertex
8
Monitor
5
14A5
10
2415.000000
20
-561.000000
30
0.000000
0
VERTEX
100
AcDbEntity
100
AcDbVertex
8
Monitor
5
14A6
10
2415.000000
20
-561.000000
30
0.000000
0
SEQEND
0
POLYLINE
100
AcDbEntity
100
AcDb3dPolyline
8
Monitor
5
14A7
70
0
66
1
62
7
0
VERTEX
100
AcDbEntity
100
AcDbVertex
8
Monitor
5
14A8
10
2359.000000
20
-575.000000
30
0.000000
0
VERTEX
100
AcDbEntity
100
AcDbVertex
8
Monitor
5
14A9
10
2085.000000
20
-1133.000000
30
0.000000
0
VERTEX
100
AcDbEntity
100
AcDbVertex
8
Monitor
5
14AA
10
1240.000000
20
-713.000000
30
0.000000
0
VERTEX
100
AcDbEntity
100
AcDbVertex
8
Monitor
5
14AB
10
1512.000000
20
-179.000000
30
0.000000
0
VERTEX
100
AcDbEntity
100
AcDbVertex
8
Monitor
5
14AC
10
2359.000000
20
-575.000000
30
0.000000
0
VERTEX
100
AcDbEntity
100
AcDbVertex
8
Monitor
5
14AD
10
2359.000000
20
-575.000000
30
0.000000
0
SEQEND
0
POLYLINE
100
AcDbEntity
100
AcDb3dPolyline
8
Monitor
5
14AE
70
0
66
1
62
1
0
VERTEX
100
AcDbEntity
100
AcDbVertex
8
Monitor
5
14AF
10
2029.000000
20
-1171.000000
30
0.000000
0
VERTEX
100
AcDbEntity
100
AcDbVertex
8
Monitor
5
14B0
10
2089.000000
20
-1199.000000
30
0.000000
0
VERTEX
100
AcDbEntity
100
AcDbVertex
8
Monitor
5
14B1
10
2070.000000
20
-1238.000000
30
0.000000
0
VERTEX
100
AcDbEntity
100
AcDbVertex
8
Monitor
5
14B2
10
2009.000000
20
-1210.000000
30
0.000000
0
VERTEX
100
AcDbEntity
100
AcDbVertex
8
Monitor
5
14B3
10
2029.000000
20
-1171.000000
30
0.000000
0
VERTEX
100
AcDbEntity
100
AcDbVertex
8
Monitor
5
14B4
10
2029.000000
20
-1171.000000
30
0.000000
0
SEQEND
0
POLYLINE
100
AcDbEntity
100
AcDb3dPolyline
8
Monitor
5
14B5
70
0
66
1
62
250
0
VERTEX
100
AcDbEntity
100
AcDbVertex
8
Monitor
5
14B6
10
2127.000000
20
-1331.000000
30
0.000000
0
VERTEX
100
AcDbEntity
100
AcDbVertex
8
Monitor
5
14B7
10
1138.000000
20
-837.000000
30
0.000000
0
VERTEX
100
AcDbEntity
100
AcDbVertex
8
Monitor
5
14B8
10
1110.000000
20
-772.000000
30
0.000000
0
VERTEX
100
AcDbEntity
100
AcDbVertex
8
Monitor
5
14B9
10
2109.000000
20
-1276.000000
30
0.000000
0
VERTEX
100
AcDbEntity
100
AcDbVertex
8
Monitor
5
14BA
10
2127.000000
20
-1331.000000
30
0.000000
0
VERTEX
100
AcDbEntity
100
AcDbVertex
8
Monitor
5
14BB
10
2127.000000
20
-1331.000000
30
0.000000
0
SEQEND
0
POLYLINE
100
AcDbEntity
100
AcDb3dPolyline
8
Monitor
5
14BC
70
0
66
1
62
252
0
VERTEX
100
AcDbEntity
100
AcDbVertex
8
Monitor
5
14BD
10
1383.000000
20
-1074.000000
30
0.000000
0
VERTEX
100
AcDbEntity
100
AcDbVertex
8
Monitor
5
14BE
10
1489.000000
20
-896.000000
30
0.000000
0
VERTEX
100
AcDbEntity
100
AcDbVertex
8
Monitor
5
14BF
10
1763.000000
20
-1029.000000
30
0.000000
0
VERTEX
100
AcDbEntity
100
AcDbVertex
8
Monitor
5
14C0
10
1656.000000
20
-1202.000000
30
0.000000
0
VERTEX
100
AcDbEntity
100
AcDbVertex
8
Monitor
5
14C1
10
1383.000000
20
-1074.000000
30
0.000000
0
VERTEX
100
AcDbEntity
100
AcDbVertex
8
Monitor
5
14C2
10
1383.000000
20
-1074.000000
30
0.000000
0
SEQEND
0
ENDSEC
0
EOF
